%TF.GenerationSoftware,KiCad,Pcbnew,7.0.11*%
%TF.CreationDate,2024-09-02T12:26:07-05:00*%
%TF.ProjectId,uv_light,75765f6c-6967-4687-942e-6b696361645f,rev?*%
%TF.SameCoordinates,PX5f5e100PY5f5e100*%
%TF.FileFunction,Soldermask,Top*%
%TF.FilePolarity,Negative*%
%FSLAX46Y46*%
G04 Gerber Fmt 4.6, Leading zero omitted, Abs format (unit mm)*
G04 Created by KiCad (PCBNEW 7.0.11) date 2024-09-02 12:26:07*
%MOMM*%
%LPD*%
G01*
G04 APERTURE LIST*
G04 Aperture macros list*
%AMRoundRect*
0 Rectangle with rounded corners*
0 $1 Rounding radius*
0 $2 $3 $4 $5 $6 $7 $8 $9 X,Y pos of 4 corners*
0 Add a 4 corners polygon primitive as box body*
4,1,4,$2,$3,$4,$5,$6,$7,$8,$9,$2,$3,0*
0 Add four circle primitives for the rounded corners*
1,1,$1+$1,$2,$3*
1,1,$1+$1,$4,$5*
1,1,$1+$1,$6,$7*
1,1,$1+$1,$8,$9*
0 Add four rect primitives between the rounded corners*
20,1,$1+$1,$2,$3,$4,$5,0*
20,1,$1+$1,$4,$5,$6,$7,0*
20,1,$1+$1,$6,$7,$8,$9,0*
20,1,$1+$1,$8,$9,$2,$3,0*%
G04 Aperture macros list end*
%ADD10C,3.700000*%
%ADD11C,0.150000*%
%ADD12C,0.010000*%
%ADD13C,0.650000*%
%ADD14RoundRect,0.150000X-0.150000X-0.575000X0.150000X-0.575000X0.150000X0.575000X-0.150000X0.575000X0*%
%ADD15R,0.300000X1.450000*%
%ADD16RoundRect,0.075000X-0.075000X-0.650000X0.075000X-0.650000X0.075000X0.650000X-0.075000X0.650000X0*%
%ADD17O,1.000000X2.100000*%
%ADD18O,1.000000X1.600000*%
%ADD19RoundRect,0.225000X0.225000X0.250000X-0.225000X0.250000X-0.225000X-0.250000X0.225000X-0.250000X0*%
%ADD20RoundRect,0.102000X0.175000X-0.250000X0.175000X0.250000X-0.175000X0.250000X-0.175000X-0.250000X0*%
%ADD21C,2.000000*%
%ADD22RoundRect,0.250000X0.350000X0.450000X-0.350000X0.450000X-0.350000X-0.450000X0.350000X-0.450000X0*%
%ADD23RoundRect,0.062500X0.062500X-0.362500X0.062500X0.362500X-0.062500X0.362500X-0.062500X-0.362500X0*%
%ADD24RoundRect,0.090000X0.035000X-0.335000X0.035000X0.335000X-0.035000X0.335000X-0.035000X-0.335000X0*%
%ADD25RoundRect,0.412500X0.777500X-0.412500X0.777500X0.412500X-0.777500X0.412500X-0.777500X-0.412500X0*%
%ADD26RoundRect,0.225000X-0.250000X0.225000X-0.250000X-0.225000X0.250000X-0.225000X0.250000X0.225000X0*%
%ADD27RoundRect,0.237500X0.237500X-0.250000X0.237500X0.250000X-0.237500X0.250000X-0.237500X-0.250000X0*%
%ADD28RoundRect,0.150000X-0.150000X0.587500X-0.150000X-0.587500X0.150000X-0.587500X0.150000X0.587500X0*%
%ADD29RoundRect,0.225000X0.250000X-0.225000X0.250000X0.225000X-0.250000X0.225000X-0.250000X-0.225000X0*%
%ADD30C,3.800000*%
%ADD31RoundRect,0.160000X0.160000X-0.197500X0.160000X0.197500X-0.160000X0.197500X-0.160000X-0.197500X0*%
%ADD32RoundRect,0.150000X0.587500X0.150000X-0.587500X0.150000X-0.587500X-0.150000X0.587500X-0.150000X0*%
%ADD33R,0.800000X1.000000*%
%ADD34C,0.900000*%
%ADD35RoundRect,0.175000X-0.575000X0.175000X-0.575000X-0.175000X0.575000X-0.175000X0.575000X0.175000X0*%
%ADD36R,1.500000X0.700000*%
%ADD37RoundRect,0.155000X-0.212500X-0.155000X0.212500X-0.155000X0.212500X0.155000X-0.212500X0.155000X0*%
%ADD38RoundRect,0.237500X0.287500X0.237500X-0.287500X0.237500X-0.287500X-0.237500X0.287500X-0.237500X0*%
%ADD39RoundRect,0.250000X-0.325000X-0.450000X0.325000X-0.450000X0.325000X0.450000X-0.325000X0.450000X0*%
%ADD40RoundRect,0.138500X0.138500X-0.213500X0.138500X0.213500X-0.138500X0.213500X-0.138500X-0.213500X0*%
%ADD41RoundRect,0.250000X-0.350000X-0.450000X0.350000X-0.450000X0.350000X0.450000X-0.350000X0.450000X0*%
%ADD42RoundRect,0.225000X-0.225000X-0.250000X0.225000X-0.250000X0.225000X0.250000X-0.225000X0.250000X0*%
%ADD43RoundRect,0.150000X0.825000X0.150000X-0.825000X0.150000X-0.825000X-0.150000X0.825000X-0.150000X0*%
%ADD44RoundRect,0.150000X-0.587500X-0.150000X0.587500X-0.150000X0.587500X0.150000X-0.587500X0.150000X0*%
%ADD45RoundRect,0.250000X0.450000X-0.350000X0.450000X0.350000X-0.450000X0.350000X-0.450000X-0.350000X0*%
%ADD46RoundRect,0.237500X-0.237500X0.250000X-0.237500X-0.250000X0.237500X-0.250000X0.237500X0.250000X0*%
%ADD47RoundRect,0.237500X-0.250000X-0.237500X0.250000X-0.237500X0.250000X0.237500X-0.250000X0.237500X0*%
%ADD48C,1.400000*%
%ADD49RoundRect,0.150000X0.150000X-0.587500X0.150000X0.587500X-0.150000X0.587500X-0.150000X-0.587500X0*%
%ADD50RoundRect,0.400000X0.000000X0.100000X0.000000X-0.100000X0.000000X-0.100000X0.000000X0.100000X0*%
%ADD51RoundRect,0.200000X-0.200000X0.300000X-0.200000X-0.300000X0.200000X-0.300000X0.200000X0.300000X0*%
%ADD52RoundRect,0.160000X-0.197500X-0.160000X0.197500X-0.160000X0.197500X0.160000X-0.197500X0.160000X0*%
%ADD53RoundRect,0.160000X0.197500X0.160000X-0.197500X0.160000X-0.197500X-0.160000X0.197500X-0.160000X0*%
G04 APERTURE END LIST*
D10*
X22900000Y0D02*
G75*
G03*
X-22900000Y0I-22900000J0D01*
G01*
X-22900000Y0D02*
G75*
G03*
X22900000Y0I22900000J0D01*
G01*
D11*
G36*
X-5768329Y2349024D02*
G01*
X-5768216Y2336813D01*
X-5767876Y2324851D01*
X-5767309Y2313137D01*
X-5766516Y2301671D01*
X-5765496Y2290453D01*
X-5764249Y2279483D01*
X-5762775Y2268761D01*
X-5761075Y2258287D01*
X-5759148Y2248062D01*
X-5756995Y2238084D01*
X-5754615Y2228354D01*
X-5752008Y2218873D01*
X-5747672Y2205115D01*
X-5742827Y2191916D01*
X-5739313Y2183427D01*
X-5733712Y2171150D01*
X-5727871Y2159324D01*
X-5721790Y2147949D01*
X-5715470Y2137025D01*
X-5708910Y2126551D01*
X-5702111Y2116528D01*
X-5695072Y2106956D01*
X-5687793Y2097835D01*
X-5680275Y2089165D01*
X-5672517Y2080945D01*
X-5667213Y2075716D01*
X-5659129Y2068230D01*
X-5650953Y2061161D01*
X-5642684Y2054509D01*
X-5634322Y2048273D01*
X-5625868Y2042453D01*
X-5617321Y2037050D01*
X-5608681Y2032063D01*
X-5599948Y2027493D01*
X-5591123Y2023339D01*
X-5582205Y2019602D01*
X-5576208Y2017342D01*
X-5567284Y2014243D01*
X-5558565Y2011448D01*
X-5550050Y2008959D01*
X-5539017Y2006114D01*
X-5528347Y2003811D01*
X-5518041Y2002050D01*
X-5508099Y2000830D01*
X-5498522Y2000153D01*
X-5491578Y2000000D01*
X-5481848Y2000129D01*
X-5471949Y2000516D01*
X-5461879Y2001160D01*
X-5451639Y2002061D01*
X-5441230Y2003220D01*
X-5437722Y2003664D01*
X-5428925Y2004945D01*
X-5418539Y2006639D01*
X-5408338Y2008506D01*
X-5398322Y2010543D01*
X-5388492Y2012753D01*
X-5383647Y2013922D01*
X-5374134Y2016381D01*
X-5364883Y2018994D01*
X-5355895Y2021762D01*
X-5347171Y2024684D01*
X-5338708Y2027761D01*
X-5335946Y2028821D01*
X-5326664Y2032703D01*
X-5318245Y2036655D01*
X-5309679Y2041258D01*
X-5301388Y2046545D01*
X-5300555Y2047139D01*
X-5292428Y2052606D01*
X-5284533Y2058382D01*
X-5276869Y2064467D01*
X-5269437Y2070861D01*
X-5262237Y2077565D01*
X-5259889Y2079868D01*
X-5253014Y2086869D01*
X-5246401Y2093767D01*
X-5240051Y2100562D01*
X-5232975Y2108359D01*
X-5226257Y2116016D01*
X-5220001Y2123462D01*
X-5213547Y2131629D01*
X-5207835Y2139430D01*
X-5202296Y2147767D01*
X-5197544Y2156283D01*
X-5193997Y2165427D01*
X-5193284Y2170482D01*
X-5194349Y2180791D01*
X-5197940Y2190654D01*
X-5202296Y2197104D01*
X-5209272Y2203223D01*
X-5217806Y2206802D01*
X-5226916Y2207851D01*
X-5236280Y2206062D01*
X-5244791Y2202055D01*
X-5252982Y2196671D01*
X-5260555Y2190660D01*
X-5261867Y2189533D01*
X-5270028Y2182543D01*
X-5277206Y2176535D01*
X-5284728Y2170360D01*
X-5292594Y2164018D01*
X-5300803Y2157509D01*
X-5309355Y2150832D01*
X-5311107Y2149477D01*
X-5320103Y2142868D01*
X-5327594Y2137735D01*
X-5335346Y2132739D01*
X-5343359Y2127881D01*
X-5351633Y2123160D01*
X-5360169Y2118577D01*
X-5368965Y2114131D01*
X-5375733Y2110887D01*
X-5384924Y2106880D01*
X-5394363Y2103407D01*
X-5404049Y2100468D01*
X-5413982Y2098064D01*
X-5424162Y2096194D01*
X-5434590Y2094858D01*
X-5445265Y2094057D01*
X-5456187Y2093790D01*
X-5464983Y2094041D01*
X-5476506Y2095157D01*
X-5487796Y2097166D01*
X-5498852Y2100069D01*
X-5509674Y2103864D01*
X-5520264Y2108552D01*
X-5530619Y2114134D01*
X-5540741Y2120608D01*
X-5543235Y2122366D01*
X-5550595Y2127895D01*
X-5557753Y2133672D01*
X-5564711Y2139698D01*
X-5571468Y2145974D01*
X-5578024Y2152498D01*
X-5584379Y2159272D01*
X-5590533Y2166294D01*
X-5596486Y2173566D01*
X-5602238Y2181086D01*
X-5607790Y2188856D01*
X-5611379Y2194174D01*
X-5616584Y2202331D01*
X-5621564Y2210591D01*
X-5626321Y2218955D01*
X-5630853Y2227421D01*
X-5635162Y2235991D01*
X-5639246Y2244663D01*
X-5644343Y2256387D01*
X-5649042Y2268294D01*
X-5653342Y2280384D01*
X-5655342Y2286497D01*
X-5658949Y2298610D01*
X-5662074Y2310403D01*
X-5664719Y2321874D01*
X-5666883Y2333026D01*
X-5668566Y2343856D01*
X-5669768Y2354366D01*
X-5670489Y2364556D01*
X-5670730Y2374425D01*
X-5670455Y2385538D01*
X-5669764Y2396865D01*
X-5668836Y2407764D01*
X-5667827Y2417686D01*
X-5666604Y2428372D01*
X-5666333Y2430601D01*
X-5664793Y2441976D01*
X-5662920Y2453661D01*
X-5660714Y2465656D01*
X-5658710Y2475475D01*
X-5656493Y2485493D01*
X-5654063Y2495709D01*
X-5651420Y2506124D01*
X-5650726Y2508758D01*
X-5647790Y2519337D01*
X-5644585Y2529946D01*
X-5641113Y2540586D01*
X-5637372Y2551257D01*
X-5633364Y2561957D01*
X-5629088Y2572689D01*
X-5624544Y2583451D01*
X-5619732Y2594243D01*
X-5614556Y2604910D01*
X-5609029Y2615294D01*
X-5603153Y2625396D01*
X-5596926Y2635215D01*
X-5590348Y2644752D01*
X-5583421Y2654007D01*
X-5576142Y2662979D01*
X-5568514Y2671668D01*
X-5560463Y2680083D01*
X-5552028Y2688109D01*
X-5543207Y2695745D01*
X-5534003Y2702992D01*
X-5524413Y2709850D01*
X-5514439Y2716319D01*
X-5504080Y2722398D01*
X-5496058Y2726702D01*
X-5493336Y2728088D01*
X-5484997Y2732060D01*
X-5476384Y2735642D01*
X-5467496Y2738832D01*
X-5458333Y2741632D01*
X-5448897Y2744042D01*
X-5439186Y2746060D01*
X-5429201Y2747688D01*
X-5418941Y2748925D01*
X-5408407Y2749772D01*
X-5397599Y2750228D01*
X-5390241Y2750315D01*
X-5380431Y2749600D01*
X-5371524Y2747455D01*
X-5362688Y2743396D01*
X-5359467Y2741278D01*
X-5351863Y2735391D01*
X-5344990Y2729027D01*
X-5338272Y2721476D01*
X-5337705Y2720761D01*
X-5331638Y2713008D01*
X-5325832Y2705197D01*
X-5320779Y2698047D01*
X-5314380Y2691200D01*
X-5305742Y2687206D01*
X-5301654Y2686811D01*
X-5292668Y2688448D01*
X-5283828Y2692455D01*
X-5279013Y2695360D01*
X-5270963Y2701013D01*
X-5263299Y2707286D01*
X-5256022Y2714179D01*
X-5254613Y2715632D01*
X-5247770Y2723231D01*
X-5241527Y2731069D01*
X-5235886Y2739145D01*
X-5234830Y2740789D01*
X-5229949Y2749794D01*
X-5226935Y2759090D01*
X-5226257Y2765702D01*
X-5227362Y2775576D01*
X-5230677Y2785417D01*
X-5236203Y2795223D01*
X-5242495Y2803368D01*
X-5250323Y2811490D01*
X-5257691Y2817970D01*
X-5265927Y2824095D01*
X-5274919Y2829403D01*
X-5284667Y2833895D01*
X-5295170Y2837570D01*
X-5306429Y2840429D01*
X-5315369Y2842037D01*
X-5324734Y2843185D01*
X-5334524Y2843874D01*
X-5344739Y2844104D01*
X-5353851Y2843982D01*
X-5363272Y2843615D01*
X-5373003Y2843005D01*
X-5383042Y2842150D01*
X-5393391Y2841051D01*
X-5404049Y2839707D01*
X-5415015Y2838120D01*
X-5426291Y2836288D01*
X-5437701Y2834132D01*
X-5449180Y2831571D01*
X-5457834Y2829385D01*
X-5466527Y2826971D01*
X-5475258Y2824330D01*
X-5484028Y2821462D01*
X-5492837Y2818365D01*
X-5501684Y2815042D01*
X-5510570Y2811490D01*
X-5519495Y2807712D01*
X-5528372Y2803692D01*
X-5537199Y2799420D01*
X-5545976Y2794894D01*
X-5554703Y2790115D01*
X-5563380Y2785082D01*
X-5572006Y2779796D01*
X-5580582Y2774257D01*
X-5589108Y2768465D01*
X-5597584Y2762419D01*
X-5606009Y2756120D01*
X-5611599Y2751780D01*
X-5619880Y2745053D01*
X-5627992Y2737970D01*
X-5635934Y2730530D01*
X-5643706Y2722734D01*
X-5651308Y2714582D01*
X-5658739Y2706073D01*
X-5666001Y2697208D01*
X-5673093Y2687987D01*
X-5680014Y2678409D01*
X-5686766Y2668475D01*
X-5691173Y2661654D01*
X-5697567Y2651157D01*
X-5703726Y2640274D01*
X-5709649Y2629004D01*
X-5715336Y2617347D01*
X-5720787Y2605304D01*
X-5726003Y2592875D01*
X-5730983Y2580060D01*
X-5735727Y2566858D01*
X-5740236Y2553269D01*
X-5743111Y2543996D01*
X-5745881Y2534550D01*
X-5747227Y2529763D01*
X-5749782Y2520041D01*
X-5752173Y2510109D01*
X-5754398Y2499968D01*
X-5756459Y2489616D01*
X-5758355Y2479054D01*
X-5760086Y2468283D01*
X-5761652Y2457301D01*
X-5763054Y2446110D01*
X-5764290Y2434709D01*
X-5765362Y2423098D01*
X-5766268Y2411277D01*
X-5767010Y2399246D01*
X-5767587Y2387005D01*
X-5767999Y2374555D01*
X-5768247Y2361894D01*
X-5768329Y2349024D01*
G37*
G36*
X-4737714Y2858824D02*
G01*
X-4729522Y2854359D01*
X-4722010Y2848108D01*
X-4714739Y2840684D01*
X-4712595Y2838279D01*
X-4706482Y2830777D01*
X-4700848Y2822846D01*
X-4695694Y2814486D01*
X-4691018Y2805696D01*
X-4686822Y2796476D01*
X-4681417Y2783843D01*
X-4675975Y2771098D01*
X-4670495Y2758243D01*
X-4664977Y2745277D01*
X-4659422Y2732200D01*
X-4653828Y2719013D01*
X-4648197Y2705715D01*
X-4642528Y2692307D01*
X-4636822Y2678788D01*
X-4631077Y2665158D01*
X-4625295Y2651417D01*
X-4619475Y2637566D01*
X-4613617Y2623604D01*
X-4607722Y2609531D01*
X-4601788Y2595348D01*
X-4595817Y2581054D01*
X-4589706Y2566637D01*
X-4583408Y2552024D01*
X-4576922Y2537214D01*
X-4570249Y2522207D01*
X-4563389Y2507004D01*
X-4556342Y2491604D01*
X-4549108Y2476008D01*
X-4541687Y2460215D01*
X-4534078Y2444226D01*
X-4526282Y2428040D01*
X-4518299Y2411658D01*
X-4510129Y2395079D01*
X-4501772Y2378303D01*
X-4493227Y2361331D01*
X-4488884Y2352771D01*
X-4484495Y2344163D01*
X-4480059Y2335505D01*
X-4475576Y2326797D01*
X-4472760Y2321322D01*
X-4467211Y2310585D01*
X-4461774Y2300132D01*
X-4456449Y2289964D01*
X-4451235Y2280080D01*
X-4446133Y2270480D01*
X-4441142Y2261164D01*
X-4436263Y2252133D01*
X-4431496Y2243386D01*
X-4424554Y2230799D01*
X-4417864Y2218851D01*
X-4411424Y2207543D01*
X-4405236Y2196875D01*
X-4399299Y2186846D01*
X-4395473Y2180469D01*
X-4389914Y2171261D01*
X-4384571Y2162483D01*
X-4379445Y2154134D01*
X-4372947Y2143670D01*
X-4366833Y2133969D01*
X-4361104Y2125031D01*
X-4355760Y2116856D01*
X-4349620Y2107712D01*
X-4346202Y2102772D01*
X-4339875Y2093756D01*
X-4334229Y2085891D01*
X-4327758Y2077193D01*
X-4321923Y2069854D01*
X-4321355Y2069186D01*
X-4315612Y2061105D01*
X-4312691Y2051780D01*
X-4312703Y2050512D01*
X-4313893Y2040341D01*
X-4317992Y2030953D01*
X-4325000Y2024913D01*
X-4331018Y2022135D01*
X-4339941Y2019456D01*
X-4348741Y2018563D01*
X-4352508Y2018621D01*
X-4361873Y2019089D01*
X-4370943Y2019784D01*
X-4372707Y2019972D01*
X-4381710Y2021055D01*
X-4391014Y2022376D01*
X-4400618Y2023936D01*
X-4402535Y2024303D01*
X-4411911Y2026134D01*
X-4420944Y2027966D01*
X-4429634Y2029798D01*
X-4432126Y2030348D01*
X-4440817Y2032546D01*
X-4449638Y2035660D01*
X-4451348Y2036168D01*
X-4460019Y2040733D01*
X-4466820Y2047488D01*
X-4472059Y2055688D01*
X-4475150Y2062002D01*
X-4479323Y2071795D01*
X-4482940Y2081975D01*
X-4485688Y2091347D01*
X-4486801Y2094679D01*
X-4490209Y2104212D01*
X-4493725Y2113577D01*
X-4497342Y2122962D01*
X-4501515Y2133601D01*
X-4503006Y2137359D01*
X-4506803Y2146780D01*
X-4510696Y2156236D01*
X-4514685Y2165728D01*
X-4518771Y2175255D01*
X-4522954Y2184819D01*
X-4527234Y2194418D01*
X-4530668Y2201993D01*
X-4534884Y2211130D01*
X-4539014Y2219896D01*
X-4543857Y2229928D01*
X-4548577Y2239428D01*
X-4553172Y2248395D01*
X-4558008Y2257625D01*
X-4563174Y2266469D01*
X-4569439Y2273797D01*
X-4574591Y2276210D01*
X-4583383Y2279240D01*
X-4592880Y2281716D01*
X-4602360Y2283708D01*
X-4611204Y2285276D01*
X-4614909Y2285878D01*
X-4624375Y2287308D01*
X-4634131Y2288631D01*
X-4644176Y2289846D01*
X-4654511Y2290954D01*
X-4665136Y2291954D01*
X-4676051Y2292848D01*
X-4680443Y2293204D01*
X-4691385Y2294013D01*
X-4702274Y2294702D01*
X-4713110Y2295272D01*
X-4723891Y2295723D01*
X-4734619Y2296055D01*
X-4745294Y2296267D01*
X-4751549Y2296398D01*
X-4761382Y2296588D01*
X-4770474Y2296741D01*
X-4780407Y2296879D01*
X-4789273Y2296965D01*
X-4798270Y2297000D01*
X-4807380Y2296982D01*
X-4817519Y2296913D01*
X-4826793Y2296793D01*
X-4836518Y2296588D01*
X-4846190Y2296267D01*
X-4855545Y2295623D01*
X-4864389Y2294364D01*
X-4873448Y2291871D01*
X-4881234Y2287753D01*
X-4887956Y2280880D01*
X-4890566Y2276621D01*
X-4894691Y2267681D01*
X-4898067Y2258165D01*
X-4898892Y2255478D01*
X-4902210Y2245575D01*
X-4905589Y2236473D01*
X-4909464Y2226805D01*
X-4913833Y2216569D01*
X-4917851Y2207607D01*
X-4919527Y2203945D01*
X-4923718Y2194808D01*
X-4927908Y2185694D01*
X-4932098Y2176604D01*
X-4936288Y2167538D01*
X-4940479Y2158496D01*
X-4944669Y2149477D01*
X-4947119Y2144118D01*
X-4951099Y2135387D01*
X-4955705Y2125241D01*
X-4960125Y2115455D01*
X-4964360Y2106030D01*
X-4968409Y2096965D01*
X-4970920Y2091237D01*
X-4974702Y2082149D01*
X-4978421Y2072216D01*
X-4981379Y2062038D01*
X-4982419Y2055936D01*
X-4984810Y2045220D01*
X-4987992Y2035536D01*
X-4992589Y2027111D01*
X-4994895Y2024320D01*
X-5002492Y2018469D01*
X-5011054Y2015632D01*
X-5012665Y2015352D01*
X-5022139Y2013644D01*
X-5031653Y2011841D01*
X-5040950Y2010014D01*
X-5046297Y2008976D01*
X-5055868Y2007256D01*
X-5065370Y2005730D01*
X-5074802Y2004397D01*
X-5076849Y2004126D01*
X-5085720Y2003001D01*
X-5094925Y2001932D01*
X-5104257Y2000977D01*
X-5110735Y2000505D01*
X-5119864Y2000000D01*
X-5121187Y2000042D01*
X-5129572Y2003034D01*
X-5135252Y2010747D01*
X-5138407Y2020393D01*
X-5139648Y2030287D01*
X-5139373Y2040224D01*
X-5138257Y2050371D01*
X-5135252Y2060328D01*
X-5134039Y2062447D01*
X-5127474Y2068962D01*
X-5119205Y2072785D01*
X-5116952Y2073489D01*
X-5107939Y2076954D01*
X-5098927Y2081457D01*
X-5091041Y2086249D01*
X-5083155Y2091836D01*
X-5078693Y2095591D01*
X-5072374Y2102483D01*
X-5066503Y2110887D01*
X-5061081Y2120801D01*
X-5056905Y2130218D01*
X-5053040Y2140684D01*
X-5051797Y2144624D01*
X-5048067Y2153977D01*
X-5043863Y2163457D01*
X-5039438Y2172970D01*
X-5035296Y2181637D01*
X-5030618Y2191243D01*
X-5026837Y2198943D01*
X-5021574Y2209657D01*
X-5016056Y2220883D01*
X-5011751Y2229637D01*
X-5007303Y2238680D01*
X-5002711Y2248010D01*
X-4997977Y2257628D01*
X-4993100Y2267533D01*
X-4988080Y2277726D01*
X-4982917Y2288207D01*
X-4979412Y2295358D01*
X-4974091Y2306224D01*
X-4968698Y2317257D01*
X-4963231Y2328457D01*
X-4957691Y2339825D01*
X-4952077Y2351361D01*
X-4946390Y2363064D01*
X-4940629Y2374934D01*
X-4939455Y2377356D01*
X-4843113Y2377356D01*
X-4837446Y2375467D01*
X-4828605Y2375158D01*
X-4610984Y2375158D01*
X-4705726Y2581787D01*
X-4710314Y2591726D01*
X-4714321Y2600783D01*
X-4718366Y2610485D01*
X-4722029Y2620199D01*
X-4725070Y2630147D01*
X-4726925Y2636772D01*
X-4732324Y2645290D01*
X-4734303Y2641382D01*
X-4736055Y2637122D01*
X-4739139Y2627705D01*
X-4739317Y2627109D01*
X-4742113Y2617377D01*
X-4744634Y2607921D01*
X-4747657Y2598151D01*
X-4751449Y2588870D01*
X-4817174Y2439882D01*
X-4820564Y2432127D01*
X-4824444Y2423292D01*
X-4828576Y2413950D01*
X-4832674Y2404787D01*
X-4837178Y2394941D01*
X-4840557Y2387133D01*
X-4843113Y2377356D01*
X-4939455Y2377356D01*
X-4934795Y2386972D01*
X-4928888Y2399177D01*
X-4922907Y2411550D01*
X-4918915Y2419872D01*
X-4913001Y2432309D01*
X-4907176Y2444690D01*
X-4901440Y2457016D01*
X-4895793Y2469285D01*
X-4890235Y2481499D01*
X-4884765Y2493657D01*
X-4879384Y2505759D01*
X-4874093Y2517806D01*
X-4868890Y2529796D01*
X-4863776Y2541731D01*
X-4860407Y2549632D01*
X-4855499Y2561343D01*
X-4850765Y2572887D01*
X-4846205Y2584264D01*
X-4841819Y2595473D01*
X-4837606Y2606515D01*
X-4833568Y2617389D01*
X-4829703Y2628096D01*
X-4826013Y2638635D01*
X-4822496Y2649007D01*
X-4819153Y2659212D01*
X-4816010Y2669129D01*
X-4813176Y2678638D01*
X-4809879Y2690682D01*
X-4807131Y2702001D01*
X-4804933Y2712595D01*
X-4803284Y2722464D01*
X-4801996Y2733781D01*
X-4801567Y2743964D01*
X-4801577Y2744317D01*
X-4803985Y2753734D01*
X-4806287Y2760965D01*
X-4809481Y2770587D01*
X-4812317Y2779599D01*
X-4815416Y2788905D01*
X-4816570Y2792889D01*
X-4818054Y2802827D01*
X-4817817Y2806091D01*
X-4814275Y2815669D01*
X-4808382Y2823099D01*
X-4802122Y2829167D01*
X-4794740Y2835401D01*
X-4786839Y2841173D01*
X-4779262Y2845924D01*
X-4770876Y2850489D01*
X-4762439Y2854362D01*
X-4760920Y2855013D01*
X-4751962Y2858219D01*
X-4742656Y2859735D01*
X-4737714Y2858824D01*
G37*
G36*
X-4206738Y2703420D02*
G01*
X-4068692Y2703420D01*
X-4067661Y2692986D01*
X-4066711Y2682474D01*
X-4065842Y2671885D01*
X-4065055Y2661219D01*
X-4064348Y2650476D01*
X-4063723Y2639655D01*
X-4063179Y2628757D01*
X-4062716Y2617782D01*
X-4062334Y2606730D01*
X-4062033Y2595600D01*
X-4061878Y2588137D01*
X-4061642Y2576892D01*
X-4061429Y2565594D01*
X-4061240Y2554246D01*
X-4061074Y2542845D01*
X-4060931Y2531394D01*
X-4060811Y2519890D01*
X-4060715Y2508336D01*
X-4060641Y2496729D01*
X-4060591Y2485072D01*
X-4060564Y2473362D01*
X-4060559Y2465527D01*
X-4060588Y2451880D01*
X-4060675Y2438597D01*
X-4060820Y2425679D01*
X-4061022Y2413126D01*
X-4061283Y2400938D01*
X-4061602Y2389115D01*
X-4061979Y2377656D01*
X-4062413Y2366563D01*
X-4062906Y2355835D01*
X-4063457Y2345472D01*
X-4063856Y2338765D01*
X-4064625Y2325836D01*
X-4065395Y2313425D01*
X-4066164Y2301534D01*
X-4066934Y2290161D01*
X-4067703Y2279307D01*
X-4068472Y2268973D01*
X-4069242Y2259157D01*
X-4070011Y2249861D01*
X-4070978Y2238899D01*
X-4071956Y2228604D01*
X-4073143Y2217132D01*
X-4074346Y2206622D01*
X-4075769Y2195576D01*
X-4076386Y2191243D01*
X-4077732Y2180496D01*
X-4078694Y2170726D01*
X-4079316Y2160903D01*
X-4079463Y2154118D01*
X-4079046Y2143931D01*
X-4077794Y2133521D01*
X-4075707Y2122888D01*
X-4072786Y2112032D01*
X-4069714Y2102814D01*
X-4067593Y2097209D01*
X-4063568Y2087999D01*
X-4059049Y2078991D01*
X-4054037Y2070186D01*
X-4048531Y2061584D01*
X-4042531Y2053185D01*
X-4036037Y2044988D01*
X-4033301Y2041766D01*
X-4026085Y2034055D01*
X-4018451Y2026797D01*
X-4010397Y2019992D01*
X-4001926Y2013640D01*
X-3993035Y2007741D01*
X-3983726Y2002296D01*
X-3979885Y2000245D01*
X-3969927Y1995671D01*
X-3959561Y1991873D01*
X-3950974Y1989392D01*
X-3942126Y1987408D01*
X-3933018Y1985919D01*
X-3923648Y1984927D01*
X-3914017Y1984431D01*
X-3909104Y1984369D01*
X-3899993Y1984872D01*
X-3890357Y1986379D01*
X-3881678Y1988471D01*
X-3872613Y1991302D01*
X-3863162Y1994871D01*
X-3853896Y1998787D01*
X-3845387Y2002840D01*
X-3836418Y2007742D01*
X-3828479Y2012831D01*
X-3822495Y2017342D01*
X-3816340Y2025081D01*
X-3811944Y2034133D01*
X-3809306Y2044498D01*
X-3808441Y2054645D01*
X-3808427Y2056176D01*
X-3809006Y2065951D01*
X-3810446Y2076158D01*
X-3811065Y2079624D01*
X-3815061Y2088796D01*
X-3823120Y2093292D01*
X-3828211Y2093790D01*
X-3837538Y2093790D01*
X-3846957Y2093790D01*
X-3847774Y2093790D01*
X-3857079Y2093790D01*
X-3866450Y2093790D01*
X-3869976Y2093790D01*
X-3879520Y2094040D01*
X-3888506Y2094792D01*
X-3898552Y2096354D01*
X-3907795Y2098638D01*
X-3916234Y2101644D01*
X-3921414Y2104048D01*
X-3929744Y2108793D01*
X-3937234Y2114052D01*
X-3944762Y2120693D01*
X-3951192Y2128005D01*
X-3952628Y2129938D01*
X-3957739Y2138120D01*
X-3962080Y2146790D01*
X-3965652Y2155950D01*
X-3968455Y2165597D01*
X-3970474Y2175672D01*
X-3971917Y2185869D01*
X-3972782Y2196189D01*
X-3973071Y2206630D01*
X-3973064Y2218728D01*
X-3973044Y2230657D01*
X-3973009Y2242419D01*
X-3972961Y2254013D01*
X-3972899Y2265439D01*
X-3972824Y2276697D01*
X-3972734Y2287787D01*
X-3972631Y2298710D01*
X-3972515Y2309464D01*
X-3972384Y2320050D01*
X-3972240Y2330469D01*
X-3972082Y2340719D01*
X-3971910Y2350802D01*
X-3971725Y2360717D01*
X-3971421Y2375274D01*
X-3971312Y2380042D01*
X-3970932Y2394145D01*
X-3970532Y2407969D01*
X-3970113Y2421514D01*
X-3969674Y2434779D01*
X-3969216Y2447766D01*
X-3968739Y2460474D01*
X-3968242Y2472902D01*
X-3967727Y2485052D01*
X-3967191Y2496922D01*
X-3966637Y2508513D01*
X-3966257Y2516086D01*
X-3965629Y2527238D01*
X-3964981Y2538162D01*
X-3964315Y2548859D01*
X-3963629Y2559328D01*
X-3962924Y2569570D01*
X-3962199Y2579584D01*
X-3961456Y2589371D01*
X-3960434Y2602066D01*
X-3959378Y2614356D01*
X-3958563Y2623308D01*
X-3957450Y2634872D01*
X-3956310Y2645992D01*
X-3955142Y2656670D01*
X-3953947Y2666906D01*
X-3952724Y2676698D01*
X-3951157Y2688316D01*
X-3949547Y2699243D01*
X-3948891Y2703420D01*
X-3939431Y2703420D01*
X-3929760Y2703420D01*
X-3919703Y2703420D01*
X-3914160Y2703420D01*
X-3905053Y2703471D01*
X-3895870Y2703626D01*
X-3886609Y2703884D01*
X-3877271Y2704244D01*
X-3867856Y2704708D01*
X-3864700Y2704885D01*
X-3855162Y2705435D01*
X-3845669Y2705984D01*
X-3836223Y2706534D01*
X-3826823Y2707084D01*
X-3817469Y2707633D01*
X-3814362Y2707816D01*
X-3805240Y2708500D01*
X-3795087Y2709407D01*
X-3785459Y2710430D01*
X-3776358Y2711571D01*
X-3770178Y2712457D01*
X-3761533Y2714934D01*
X-3753424Y2719153D01*
X-3748636Y2722471D01*
X-3741215Y2728665D01*
X-3734364Y2735495D01*
X-3728633Y2742255D01*
X-3722873Y2749950D01*
X-3717242Y2758279D01*
X-3713465Y2764481D01*
X-3709108Y2773704D01*
X-3707097Y2783269D01*
X-3707091Y2783776D01*
X-3708010Y2793653D01*
X-3712097Y2803644D01*
X-3719454Y2810002D01*
X-3728574Y2812585D01*
X-3733249Y2812841D01*
X-3746393Y2812772D01*
X-3759529Y2812566D01*
X-3772658Y2812222D01*
X-3785779Y2811742D01*
X-3798892Y2811123D01*
X-3811997Y2810368D01*
X-3825095Y2809475D01*
X-3838185Y2808444D01*
X-3851267Y2807277D01*
X-3864342Y2805971D01*
X-3873054Y2805025D01*
X-3886076Y2803628D01*
X-3899094Y2802369D01*
X-3912109Y2801247D01*
X-3925120Y2800262D01*
X-3938126Y2799415D01*
X-3951129Y2798705D01*
X-3964129Y2798133D01*
X-3977124Y2797698D01*
X-3990115Y2797400D01*
X-4003103Y2797240D01*
X-4011759Y2797209D01*
X-4021559Y2797235D01*
X-4031092Y2797312D01*
X-4040358Y2797441D01*
X-4049358Y2797621D01*
X-4060943Y2797942D01*
X-4072055Y2798354D01*
X-4082692Y2798858D01*
X-4092855Y2799453D01*
X-4102544Y2800140D01*
X-4111780Y2800873D01*
X-4120693Y2801606D01*
X-4131380Y2802521D01*
X-4141563Y2803437D01*
X-4151241Y2804353D01*
X-4160415Y2805269D01*
X-4167391Y2806002D01*
X-4177334Y2807067D01*
X-4186721Y2808063D01*
X-4195551Y2808990D01*
X-4205150Y2809985D01*
X-4213992Y2810887D01*
X-4223238Y2811742D01*
X-4232885Y2812411D01*
X-4241731Y2812772D01*
X-4247185Y2812841D01*
X-4256222Y2811123D01*
X-4264539Y2806641D01*
X-4272079Y2800321D01*
X-4276860Y2795255D01*
X-4282856Y2787820D01*
X-4287905Y2779695D01*
X-4291511Y2770097D01*
X-4292248Y2763748D01*
X-4291698Y2753826D01*
X-4290049Y2743842D01*
X-4287302Y2733798D01*
X-4283455Y2723692D01*
X-4278289Y2714823D01*
X-4270901Y2707874D01*
X-4261844Y2704133D01*
X-4254878Y2703420D01*
X-4245440Y2703420D01*
X-4236249Y2703420D01*
X-4230259Y2703420D01*
X-4221284Y2703420D01*
X-4211771Y2703420D01*
X-4206738Y2703420D01*
G37*
G36*
X-3150950Y2109421D02*
G01*
X-3379561Y2103804D01*
X-3388522Y2103160D01*
X-3396927Y2100873D01*
X-3405465Y2098448D01*
X-3408797Y2098186D01*
X-3416930Y2101606D01*
X-3416644Y2111854D01*
X-3416078Y2121845D01*
X-3415334Y2132340D01*
X-3414512Y2142638D01*
X-3413531Y2153973D01*
X-3412724Y2163943D01*
X-3411929Y2174390D01*
X-3411145Y2185314D01*
X-3410371Y2196715D01*
X-3409608Y2208593D01*
X-3409456Y2211026D01*
X-3408800Y2220895D01*
X-3408151Y2230963D01*
X-3407509Y2241228D01*
X-3406873Y2251693D01*
X-3406245Y2262355D01*
X-3405623Y2273217D01*
X-3405008Y2284276D01*
X-3404400Y2295534D01*
X-3403782Y2306861D01*
X-3403246Y2318127D01*
X-3402793Y2329331D01*
X-3402422Y2340475D01*
X-3402133Y2351558D01*
X-3401927Y2362579D01*
X-3401804Y2373539D01*
X-3401763Y2384439D01*
X-3401783Y2395792D01*
X-3401845Y2406772D01*
X-3401948Y2417377D01*
X-3402092Y2427609D01*
X-3402278Y2437466D01*
X-3402568Y2449262D01*
X-3402922Y2460474D01*
X-3403081Y2464795D01*
X-3403398Y2475588D01*
X-3403661Y2486595D01*
X-3403870Y2497818D01*
X-3404026Y2509254D01*
X-3404128Y2520906D01*
X-3404176Y2532772D01*
X-3404181Y2537579D01*
X-3404148Y2548550D01*
X-3404049Y2559572D01*
X-3403885Y2570646D01*
X-3403655Y2581772D01*
X-3403359Y2592949D01*
X-3402998Y2604177D01*
X-3402571Y2615457D01*
X-3402079Y2626789D01*
X-3401520Y2638172D01*
X-3400896Y2649606D01*
X-3400444Y2657258D01*
X-3399776Y2668768D01*
X-3399174Y2680307D01*
X-3398637Y2691877D01*
X-3398166Y2703477D01*
X-3397761Y2715107D01*
X-3397422Y2726767D01*
X-3397148Y2738457D01*
X-3396940Y2750177D01*
X-3396798Y2761927D01*
X-3396721Y2773707D01*
X-3396707Y2781578D01*
X-3396307Y2791744D01*
X-3395107Y2801911D01*
X-3393107Y2812077D01*
X-3391651Y2817726D01*
X-3389207Y2827662D01*
X-3387429Y2837842D01*
X-3386615Y2847994D01*
X-3386595Y2849721D01*
X-3388125Y2860352D01*
X-3392716Y2869436D01*
X-3399365Y2876214D01*
X-3405939Y2880496D01*
X-3414001Y2884588D01*
X-3422467Y2888034D01*
X-3431040Y2890342D01*
X-3437813Y2890998D01*
X-3446612Y2888988D01*
X-3454959Y2885091D01*
X-3462872Y2880496D01*
X-3471294Y2875153D01*
X-3479633Y2869383D01*
X-3487890Y2863185D01*
X-3495047Y2857412D01*
X-3496065Y2856560D01*
X-3502959Y2850494D01*
X-3510529Y2843362D01*
X-3517769Y2836015D01*
X-3524680Y2828455D01*
X-3525520Y2827495D01*
X-3531291Y2820122D01*
X-3536185Y2811807D01*
X-3538710Y2801850D01*
X-3537261Y2791481D01*
X-3534015Y2782105D01*
X-3532115Y2777914D01*
X-3528406Y2768636D01*
X-3525520Y2759229D01*
X-3523047Y2749641D01*
X-3520574Y2738644D01*
X-3518926Y2730531D01*
X-3516807Y2719412D01*
X-3515128Y2709564D01*
X-3513462Y2698869D01*
X-3511810Y2687327D01*
X-3510171Y2674937D01*
X-3508952Y2665089D01*
X-3507740Y2654764D01*
X-3506535Y2643963D01*
X-3505737Y2636497D01*
X-3504597Y2624779D01*
X-3503570Y2612340D01*
X-3502655Y2599180D01*
X-3501852Y2585298D01*
X-3501161Y2570695D01*
X-3500763Y2560559D01*
X-3500414Y2550102D01*
X-3500115Y2539325D01*
X-3499866Y2528227D01*
X-3499667Y2516809D01*
X-3499518Y2505070D01*
X-3499418Y2493010D01*
X-3499368Y2480630D01*
X-3499362Y2474320D01*
X-3499362Y2276728D01*
X-3499372Y2266034D01*
X-3499403Y2255692D01*
X-3499455Y2245701D01*
X-3499548Y2233706D01*
X-3499674Y2222260D01*
X-3499831Y2211362D01*
X-3500021Y2201012D01*
X-3500292Y2189357D01*
X-3500609Y2178389D01*
X-3500972Y2168108D01*
X-3501454Y2156982D01*
X-3502000Y2146790D01*
X-3502610Y2136846D01*
X-3504801Y2126512D01*
X-3508586Y2117276D01*
X-3513965Y2109140D01*
X-3514749Y2108200D01*
X-3520806Y2099976D01*
X-3525211Y2090884D01*
X-3527230Y2080937D01*
X-3527279Y2079135D01*
X-3525390Y2069156D01*
X-3522443Y2060328D01*
X-3518629Y2051487D01*
X-3514140Y2042760D01*
X-3509474Y2034927D01*
X-3503877Y2026508D01*
X-3497969Y2018377D01*
X-3492328Y2011236D01*
X-3485674Y2004839D01*
X-3477408Y2000703D01*
X-3472104Y2000000D01*
X-3462867Y2000550D01*
X-3452910Y2002580D01*
X-3443837Y2006107D01*
X-3435648Y2011129D01*
X-3430339Y2015632D01*
X-3421309Y2015632D01*
X-3420887Y2015632D01*
X-3411819Y2015632D01*
X-3402350Y2015632D01*
X-3398685Y2015632D01*
X-3389301Y2015632D01*
X-3379530Y2015632D01*
X-3369875Y2015632D01*
X-3360779Y2015632D01*
X-3357579Y2015632D01*
X-3347249Y2015632D01*
X-3337720Y2015632D01*
X-3327354Y2015632D01*
X-3318458Y2015632D01*
X-3309027Y2015632D01*
X-3299059Y2015632D01*
X-3288556Y2015632D01*
X-3278623Y2015621D01*
X-3269157Y2015586D01*
X-3260158Y2015529D01*
X-3249567Y2015425D01*
X-3239705Y2015286D01*
X-3230573Y2015110D01*
X-3222171Y2014899D01*
X-3212830Y2014716D01*
X-3202910Y2014502D01*
X-3194041Y2014289D01*
X-3185193Y2014044D01*
X-3181285Y2013922D01*
X-3171974Y2013558D01*
X-3162877Y2012967D01*
X-3160402Y2012701D01*
X-3152708Y2011480D01*
X-3143531Y2008839D01*
X-3134651Y2006269D01*
X-3125877Y2003706D01*
X-3123252Y2002931D01*
X-3114134Y2000928D01*
X-3104839Y2000072D01*
X-3101051Y2000000D01*
X-3092165Y2002782D01*
X-3085554Y2009480D01*
X-3081267Y2016853D01*
X-3076866Y2026548D01*
X-3072813Y2036397D01*
X-3069107Y2046400D01*
X-3067199Y2052024D01*
X-3064086Y2062075D01*
X-3061426Y2071894D01*
X-3059218Y2081481D01*
X-3058186Y2086707D01*
X-3056309Y2096908D01*
X-3054969Y2106800D01*
X-3054889Y2108689D01*
X-3056256Y2118872D01*
X-3061168Y2127447D01*
X-3069651Y2132755D01*
X-3078358Y2134593D01*
X-3083465Y2134823D01*
X-3092524Y2133857D01*
X-3101897Y2130959D01*
X-3110490Y2126761D01*
X-3117097Y2122610D01*
X-3124803Y2117889D01*
X-3133404Y2113752D01*
X-3142816Y2110704D01*
X-3150950Y2109421D01*
G37*
G36*
X-2861229Y2442569D02*
G01*
X-2861226Y2428714D01*
X-2861218Y2415118D01*
X-2861206Y2401779D01*
X-2861187Y2388698D01*
X-2861164Y2375874D01*
X-2861136Y2363308D01*
X-2861102Y2350999D01*
X-2861064Y2338949D01*
X-2861020Y2327155D01*
X-2860971Y2315620D01*
X-2860917Y2304341D01*
X-2860858Y2293321D01*
X-2860793Y2282558D01*
X-2860724Y2272053D01*
X-2860649Y2261805D01*
X-2860569Y2251815D01*
X-2860442Y2237305D01*
X-2860306Y2223267D01*
X-2860164Y2209702D01*
X-2860013Y2196608D01*
X-2859854Y2183987D01*
X-2859688Y2171839D01*
X-2859514Y2160162D01*
X-2859333Y2148958D01*
X-2859143Y2138226D01*
X-2858946Y2127967D01*
X-2858811Y2121389D01*
X-2858450Y2108788D01*
X-2858028Y2096873D01*
X-2857543Y2085646D01*
X-2856997Y2075105D01*
X-2856389Y2065252D01*
X-2855542Y2053900D01*
X-2854599Y2043623D01*
X-2854194Y2039812D01*
X-2852873Y2029119D01*
X-2851382Y2019387D01*
X-2849427Y2009249D01*
X-2846909Y1999266D01*
X-2845182Y1993894D01*
X-2841309Y1984964D01*
X-2835869Y1977271D01*
X-2830674Y1973378D01*
X-2821887Y1970047D01*
X-2813075Y1968778D01*
X-2811110Y1968737D01*
X-2801775Y1969819D01*
X-2792290Y1973816D01*
X-2784320Y1980759D01*
X-2778694Y1989053D01*
X-2774181Y1999512D01*
X-2771141Y2010489D01*
X-2769080Y2021228D01*
X-2767349Y2033707D01*
X-2766267Y2044208D01*
X-2765371Y2055689D01*
X-2764660Y2068148D01*
X-2764134Y2081586D01*
X-2763794Y2096003D01*
X-2763670Y2106158D01*
X-2763629Y2116749D01*
X-2763626Y2132579D01*
X-2763617Y2148198D01*
X-2763602Y2163604D01*
X-2763581Y2178798D01*
X-2763554Y2193779D01*
X-2763521Y2208549D01*
X-2763482Y2223106D01*
X-2763437Y2237450D01*
X-2763386Y2251583D01*
X-2763329Y2265503D01*
X-2763266Y2279211D01*
X-2763196Y2292706D01*
X-2763121Y2305990D01*
X-2763040Y2319061D01*
X-2762953Y2331920D01*
X-2762860Y2344566D01*
X-2762761Y2357000D01*
X-2762656Y2369222D01*
X-2762544Y2381232D01*
X-2762427Y2393029D01*
X-2762304Y2404614D01*
X-2762175Y2415987D01*
X-2762039Y2427148D01*
X-2761898Y2438096D01*
X-2761751Y2448832D01*
X-2761598Y2459355D01*
X-2761438Y2469667D01*
X-2761273Y2479766D01*
X-2761102Y2489653D01*
X-2760741Y2508790D01*
X-2760552Y2518040D01*
X-2760133Y2535999D01*
X-2759700Y2553302D01*
X-2759253Y2569949D01*
X-2758793Y2585939D01*
X-2758319Y2601273D01*
X-2757832Y2615950D01*
X-2757330Y2629971D01*
X-2756815Y2643336D01*
X-2756286Y2656044D01*
X-2755743Y2668096D01*
X-2755187Y2679492D01*
X-2754617Y2690231D01*
X-2754033Y2700313D01*
X-2753131Y2714207D01*
X-2752199Y2726623D01*
X-2751422Y2736517D01*
X-2750045Y2747195D01*
X-2748145Y2757202D01*
X-2745384Y2767656D01*
X-2742622Y2777724D01*
X-2740763Y2787869D01*
X-2739809Y2798091D01*
X-2739669Y2803804D01*
X-2742513Y2813467D01*
X-2748378Y2820894D01*
X-2756278Y2827626D01*
X-2759892Y2830182D01*
X-2768530Y2835607D01*
X-2776746Y2839699D01*
X-2785621Y2842744D01*
X-2794949Y2844090D01*
X-2795943Y2844104D01*
X-2804886Y2842489D01*
X-2813662Y2838678D01*
X-2821548Y2834014D01*
X-2823640Y2832624D01*
X-2832034Y2826793D01*
X-2840291Y2820534D01*
X-2847403Y2814707D01*
X-2854410Y2808553D01*
X-2856393Y2806735D01*
X-2863063Y2800302D01*
X-2870300Y2792635D01*
X-2877125Y2784632D01*
X-2883537Y2776293D01*
X-2884310Y2775227D01*
X-2889695Y2767060D01*
X-2894263Y2757925D01*
X-2896607Y2747832D01*
X-2896619Y2747139D01*
X-2895939Y2737362D01*
X-2893899Y2727447D01*
X-2891783Y2720761D01*
X-2887446Y2711290D01*
X-2882390Y2702939D01*
X-2876757Y2695062D01*
X-2873539Y2690964D01*
X-2868879Y2682495D01*
X-2866535Y2672945D01*
X-2866285Y2670691D01*
X-2865481Y2660685D01*
X-2865094Y2650772D01*
X-2864967Y2640627D01*
X-2864966Y2639428D01*
X-2864923Y2627696D01*
X-2864794Y2615700D01*
X-2864629Y2605915D01*
X-2864409Y2595963D01*
X-2864134Y2585842D01*
X-2863805Y2575553D01*
X-2863420Y2565096D01*
X-2863207Y2559805D01*
X-2862743Y2548677D01*
X-2862342Y2536541D01*
X-2862001Y2523398D01*
X-2861787Y2512879D01*
X-2861607Y2501794D01*
X-2861462Y2490142D01*
X-2861352Y2477923D01*
X-2861277Y2465137D01*
X-2861236Y2451785D01*
X-2861229Y2442569D01*
G37*
G36*
X-2381145Y2436218D02*
G01*
X-2381187Y2424559D01*
X-2381313Y2413091D01*
X-2381524Y2401814D01*
X-2381818Y2390728D01*
X-2382197Y2379832D01*
X-2382660Y2369128D01*
X-2383207Y2358614D01*
X-2383838Y2348291D01*
X-2384553Y2338159D01*
X-2385352Y2328217D01*
X-2386236Y2318466D01*
X-2387719Y2304198D01*
X-2389392Y2290359D01*
X-2391253Y2276950D01*
X-2391916Y2272576D01*
X-2393906Y2259752D01*
X-2395919Y2247294D01*
X-2397955Y2235200D01*
X-2400015Y2223471D01*
X-2402098Y2212108D01*
X-2404204Y2201109D01*
X-2406333Y2190475D01*
X-2408485Y2180206D01*
X-2410660Y2170302D01*
X-2412859Y2160763D01*
X-2414338Y2154606D01*
X-2417291Y2142810D01*
X-2420218Y2131602D01*
X-2423117Y2120981D01*
X-2425988Y2110948D01*
X-2428832Y2101502D01*
X-2432348Y2090522D01*
X-2435821Y2080460D01*
X-2437199Y2076693D01*
X-2440934Y2066183D01*
X-2443896Y2056634D01*
X-2446376Y2046710D01*
X-2447921Y2036971D01*
X-2448190Y2031752D01*
X-2446692Y2021580D01*
X-2442200Y2012590D01*
X-2441375Y2011480D01*
X-2434842Y2004467D01*
X-2427551Y1998390D01*
X-2425328Y1996825D01*
X-2417040Y1991923D01*
X-2408330Y1988330D01*
X-2405765Y1987544D01*
X-2397163Y1985374D01*
X-2388416Y1984372D01*
X-2387959Y1984369D01*
X-2379098Y1985468D01*
X-2370539Y1988765D01*
X-2362282Y1994261D01*
X-2355305Y2000873D01*
X-2354327Y2001954D01*
X-2347834Y2010490D01*
X-2342955Y2019145D01*
X-2338710Y2029037D01*
X-2335656Y2038225D01*
X-2333043Y2048271D01*
X-2331686Y2054711D01*
X-2330025Y2064485D01*
X-2328422Y2074483D01*
X-2326877Y2084704D01*
X-2325390Y2095148D01*
X-2323961Y2105816D01*
X-2322590Y2116707D01*
X-2321277Y2127821D01*
X-2320022Y2139158D01*
X-2318824Y2150718D01*
X-2317685Y2162502D01*
X-2316958Y2170482D01*
X-2315904Y2182563D01*
X-2314884Y2194628D01*
X-2313900Y2206675D01*
X-2312950Y2218705D01*
X-2312035Y2230717D01*
X-2311154Y2242713D01*
X-2310309Y2254691D01*
X-2309498Y2266653D01*
X-2308722Y2278597D01*
X-2307981Y2290524D01*
X-2307506Y2298465D01*
X-2306811Y2310288D01*
X-2306128Y2321944D01*
X-2305456Y2333432D01*
X-2304796Y2344753D01*
X-2304147Y2355906D01*
X-2303510Y2366892D01*
X-2302885Y2377711D01*
X-2302271Y2388362D01*
X-2301669Y2398845D01*
X-2301079Y2409162D01*
X-2300691Y2415946D01*
X-2300085Y2425776D01*
X-2299312Y2437833D01*
X-2298580Y2448692D01*
X-2297724Y2460581D01*
X-2296932Y2470598D01*
X-2295931Y2481476D01*
X-2295416Y2486044D01*
X-2288313Y2478793D01*
X-2281083Y2471572D01*
X-2274133Y2464731D01*
X-2266488Y2457289D01*
X-2259585Y2450629D01*
X-2252296Y2443782D01*
X-2244717Y2436828D01*
X-2236849Y2429767D01*
X-2228690Y2422598D01*
X-2220242Y2415322D01*
X-2211504Y2407939D01*
X-2207928Y2404955D01*
X-2200585Y2398964D01*
X-2192953Y2392835D01*
X-2185032Y2386568D01*
X-2176824Y2380164D01*
X-2168326Y2373623D01*
X-2159540Y2366945D01*
X-2150466Y2360129D01*
X-2141103Y2353176D01*
X-2131338Y2346012D01*
X-2123677Y2340455D01*
X-2115725Y2334738D01*
X-2107484Y2328863D01*
X-2098953Y2322828D01*
X-2090132Y2316635D01*
X-2081021Y2310283D01*
X-2071621Y2303773D01*
X-2061931Y2297103D01*
X-2051951Y2290274D01*
X-2048559Y2287963D01*
X-2038123Y2280947D01*
X-2027338Y2273729D01*
X-2016206Y2266309D01*
X-2008592Y2261251D01*
X-2000822Y2256103D01*
X-1992899Y2250865D01*
X-1984820Y2245537D01*
X-1976587Y2240120D01*
X-1968200Y2234613D01*
X-1959658Y2229017D01*
X-1950961Y2223330D01*
X-1942110Y2217554D01*
X-1933104Y2211689D01*
X-1923944Y2205733D01*
X-1919306Y2202722D01*
X-1909860Y2196615D01*
X-1900206Y2190384D01*
X-1890344Y2184029D01*
X-1880275Y2177550D01*
X-1869997Y2170947D01*
X-1859512Y2164219D01*
X-1848819Y2157368D01*
X-1837918Y2150393D01*
X-1826810Y2143294D01*
X-1815493Y2136070D01*
X-1803969Y2128723D01*
X-1792237Y2121252D01*
X-1780298Y2113656D01*
X-1768150Y2105937D01*
X-1755795Y2098094D01*
X-1743231Y2090126D01*
X-1735002Y2084020D01*
X-1727679Y2077181D01*
X-1721263Y2069610D01*
X-1715754Y2061305D01*
X-1710753Y2052818D01*
X-1706082Y2044453D01*
X-1701221Y2035188D01*
X-1697729Y2028088D01*
X-1693488Y2019313D01*
X-1688980Y2009925D01*
X-1684687Y2000918D01*
X-1683441Y1998291D01*
X-1678284Y1990365D01*
X-1670581Y1985239D01*
X-1664976Y1984369D01*
X-1655503Y1985210D01*
X-1646644Y1987052D01*
X-1640356Y1988765D01*
X-1631079Y1992038D01*
X-1622839Y1995880D01*
X-1614703Y2000573D01*
X-1611121Y2002931D01*
X-1603327Y2009009D01*
X-1596020Y2015975D01*
X-1589200Y2023829D01*
X-1585622Y2028577D01*
X-1580717Y2036729D01*
X-1576874Y2046702D01*
X-1574947Y2056281D01*
X-1574411Y2065213D01*
X-1574534Y2075304D01*
X-1574905Y2085547D01*
X-1575524Y2095942D01*
X-1576389Y2106490D01*
X-1577365Y2117588D01*
X-1578376Y2127875D01*
X-1579534Y2138699D01*
X-1580645Y2148405D01*
X-1581445Y2155095D01*
X-1582560Y2165636D01*
X-1583599Y2176745D01*
X-1584559Y2188420D01*
X-1585301Y2198582D01*
X-1585989Y2209137D01*
X-1586501Y2217865D01*
X-1587007Y2229301D01*
X-1587428Y2241321D01*
X-1587703Y2251358D01*
X-1587923Y2261769D01*
X-1588088Y2272554D01*
X-1588198Y2283712D01*
X-1588253Y2295245D01*
X-1588259Y2301152D01*
X-1588247Y2320528D01*
X-1588211Y2339395D01*
X-1588151Y2357752D01*
X-1588067Y2375600D01*
X-1587959Y2392939D01*
X-1587827Y2409767D01*
X-1587670Y2426087D01*
X-1587490Y2441897D01*
X-1587286Y2457197D01*
X-1587057Y2471988D01*
X-1586805Y2486270D01*
X-1586528Y2500042D01*
X-1586228Y2513305D01*
X-1585903Y2526058D01*
X-1585555Y2538301D01*
X-1585182Y2550035D01*
X-1584765Y2561350D01*
X-1584340Y2572334D01*
X-1583907Y2582988D01*
X-1583465Y2593312D01*
X-1583014Y2603306D01*
X-1582322Y2617678D01*
X-1581610Y2631307D01*
X-1580879Y2644194D01*
X-1580129Y2656337D01*
X-1579359Y2667738D01*
X-1578570Y2678396D01*
X-1577762Y2688312D01*
X-1577488Y2691452D01*
X-1576410Y2703382D01*
X-1575373Y2714380D01*
X-1574376Y2724448D01*
X-1573189Y2735722D01*
X-1572067Y2745542D01*
X-1570804Y2755405D01*
X-1570014Y2760817D01*
X-1568421Y2771327D01*
X-1567261Y2781555D01*
X-1566720Y2791813D01*
X-1566717Y2792569D01*
X-1567775Y2803407D01*
X-1571494Y2812899D01*
X-1578767Y2820093D01*
X-1583643Y2822366D01*
X-1593008Y2825318D01*
X-1602059Y2827303D01*
X-1611749Y2828377D01*
X-1615517Y2828472D01*
X-1624322Y2828126D01*
X-1633184Y2827210D01*
X-1642861Y2825722D01*
X-1643873Y2825541D01*
X-1652971Y2823719D01*
X-1661965Y2821549D01*
X-1670854Y2819030D01*
X-1675747Y2817481D01*
X-1684142Y2814210D01*
X-1692857Y2809668D01*
X-1700929Y2804173D01*
X-1703225Y2802338D01*
X-1709484Y2795436D01*
X-1713692Y2786355D01*
X-1715095Y2775716D01*
X-1714198Y2765893D01*
X-1711204Y2756646D01*
X-1708720Y2752268D01*
X-1703100Y2743867D01*
X-1697806Y2735563D01*
X-1695751Y2732241D01*
X-1690764Y2723425D01*
X-1686409Y2714016D01*
X-1683001Y2705374D01*
X-1680028Y2695594D01*
X-1677998Y2685473D01*
X-1676695Y2675515D01*
X-1675834Y2664529D01*
X-1675747Y2662876D01*
X-1675445Y2652872D01*
X-1675143Y2642890D01*
X-1674840Y2632928D01*
X-1674538Y2622988D01*
X-1674236Y2613068D01*
X-1673934Y2603170D01*
X-1673631Y2593292D01*
X-1673329Y2583436D01*
X-1673027Y2573600D01*
X-1672725Y2563786D01*
X-1672422Y2553992D01*
X-1672120Y2544219D01*
X-1671667Y2529600D01*
X-1671213Y2515028D01*
X-1670911Y2505339D01*
X-1670440Y2490732D01*
X-1670151Y2480844D01*
X-1669883Y2470836D01*
X-1669636Y2460708D01*
X-1669409Y2450459D01*
X-1669203Y2440090D01*
X-1669018Y2429601D01*
X-1668853Y2418992D01*
X-1668709Y2408262D01*
X-1668585Y2397412D01*
X-1668482Y2386443D01*
X-1668400Y2375352D01*
X-1668338Y2364142D01*
X-1668297Y2352811D01*
X-1668276Y2341361D01*
X-1668273Y2335590D01*
X-1668305Y2324748D01*
X-1668400Y2314232D01*
X-1668557Y2304044D01*
X-1668778Y2294183D01*
X-1668933Y2288696D01*
X-1669304Y2277964D01*
X-1669757Y2267263D01*
X-1670293Y2256593D01*
X-1670911Y2245953D01*
X-1671516Y2235283D01*
X-1672230Y2224276D01*
X-1672945Y2214371D01*
X-1673745Y2204208D01*
X-1673989Y2201257D01*
X-1674747Y2191090D01*
X-1675485Y2181321D01*
X-1676303Y2170643D01*
X-1677093Y2160484D01*
X-1677286Y2158026D01*
X-1688257Y2164363D01*
X-1699189Y2170734D01*
X-1710081Y2177140D01*
X-1720934Y2183580D01*
X-1731747Y2190054D01*
X-1742521Y2196563D01*
X-1753255Y2203106D01*
X-1763949Y2209683D01*
X-1774605Y2216295D01*
X-1785220Y2222941D01*
X-1795796Y2229621D01*
X-1806333Y2236336D01*
X-1816830Y2243085D01*
X-1827288Y2249869D01*
X-1837706Y2256686D01*
X-1848085Y2263539D01*
X-1858410Y2270478D01*
X-1868720Y2277495D01*
X-1879018Y2284590D01*
X-1889301Y2291764D01*
X-1899571Y2299016D01*
X-1909826Y2306346D01*
X-1920069Y2313754D01*
X-1930297Y2321241D01*
X-1940512Y2328806D01*
X-1950713Y2336449D01*
X-1960900Y2344170D01*
X-1971073Y2351970D01*
X-1981233Y2359847D01*
X-1991379Y2367804D01*
X-2001511Y2375838D01*
X-2011630Y2383950D01*
X-2021727Y2392192D01*
X-2031850Y2400555D01*
X-2041998Y2409038D01*
X-2052173Y2417641D01*
X-2062373Y2426364D01*
X-2072599Y2435207D01*
X-2082850Y2444170D01*
X-2093128Y2453254D01*
X-2103431Y2462458D01*
X-2113760Y2471782D01*
X-2124114Y2481227D01*
X-2134495Y2490791D01*
X-2144901Y2500476D01*
X-2155333Y2510281D01*
X-2165791Y2520206D01*
X-2176274Y2530252D01*
X-2186833Y2540491D01*
X-2197517Y2550936D01*
X-2208327Y2561587D01*
X-2219262Y2572445D01*
X-2230323Y2583508D01*
X-2241509Y2594778D01*
X-2252820Y2606253D01*
X-2264256Y2617935D01*
X-2275818Y2629823D01*
X-2287506Y2641916D01*
X-2299318Y2654216D01*
X-2311256Y2666722D01*
X-2323320Y2679434D01*
X-2335509Y2692353D01*
X-2347823Y2705477D01*
X-2360262Y2718807D01*
X-2367014Y2725982D01*
X-2373503Y2732852D01*
X-2381746Y2741538D01*
X-2389522Y2749682D01*
X-2396831Y2757284D01*
X-2403673Y2764344D01*
X-2411568Y2772407D01*
X-2418734Y2779624D01*
X-2425251Y2786219D01*
X-2432505Y2793409D01*
X-2440187Y2800798D01*
X-2447027Y2807113D01*
X-2453026Y2812352D01*
X-2460170Y2818387D01*
X-2467863Y2824030D01*
X-2471051Y2825786D01*
X-2479624Y2828378D01*
X-2481602Y2828472D01*
X-2491373Y2827854D01*
X-2500572Y2825999D01*
X-2509199Y2822908D01*
X-2517254Y2818580D01*
X-2524737Y2813016D01*
X-2527104Y2810887D01*
X-2534299Y2803252D01*
X-2540358Y2794669D01*
X-2544415Y2785195D01*
X-2545569Y2776937D01*
X-2544456Y2766968D01*
X-2542052Y2759107D01*
X-2537670Y2750151D01*
X-2532398Y2741344D01*
X-2528204Y2734927D01*
X-2522392Y2726715D01*
X-2516428Y2718677D01*
X-2510663Y2711155D01*
X-2504295Y2703049D01*
X-2498528Y2695848D01*
X-2492240Y2688163D01*
X-2485330Y2679763D01*
X-2479354Y2672527D01*
X-2472979Y2664833D01*
X-2466206Y2656682D01*
X-2459035Y2648072D01*
X-2451465Y2639005D01*
X-2447530Y2634299D01*
X-2441031Y2626311D01*
X-2434887Y2618285D01*
X-2429099Y2610220D01*
X-2423666Y2602116D01*
X-2418589Y2593974D01*
X-2412372Y2583058D01*
X-2406787Y2572072D01*
X-2401835Y2561018D01*
X-2397514Y2549896D01*
X-2396532Y2547104D01*
X-2392926Y2535595D01*
X-2389800Y2523413D01*
X-2387772Y2513836D01*
X-2386014Y2503881D01*
X-2384526Y2493549D01*
X-2383309Y2482838D01*
X-2382362Y2471750D01*
X-2381686Y2460284D01*
X-2381280Y2448440D01*
X-2381145Y2436218D01*
G37*
G36*
X-5816469Y435283D02*
G01*
X-5816469Y358835D01*
X-5814859Y348799D01*
X-5810028Y339514D01*
X-5803679Y332475D01*
X-5802841Y331724D01*
X-5795364Y326057D01*
X-5787076Y321649D01*
X-5779100Y320000D01*
X-5770297Y321288D01*
X-5761954Y325862D01*
X-5754743Y331539D01*
X-5749205Y335632D01*
X-5740287Y335632D01*
X-5731619Y335632D01*
X-5722786Y335632D01*
X-5713433Y335632D01*
X-5703514Y335632D01*
X-5697987Y335632D01*
X-5688819Y335632D01*
X-5678461Y335632D01*
X-5668920Y335632D01*
X-5658553Y335632D01*
X-5649664Y335632D01*
X-5640246Y335632D01*
X-5635339Y335632D01*
X-5624915Y335632D01*
X-5613646Y335632D01*
X-5604639Y335632D01*
X-5595158Y335632D01*
X-5585201Y335632D01*
X-5574769Y335632D01*
X-5563861Y335632D01*
X-5552479Y335632D01*
X-5540621Y335632D01*
X-5528287Y335632D01*
X-5516857Y335632D01*
X-5505976Y335632D01*
X-5495644Y335632D01*
X-5485862Y335632D01*
X-5476630Y335632D01*
X-5465862Y335632D01*
X-5455953Y335632D01*
X-5452230Y335632D01*
X-5443114Y335602D01*
X-5432955Y335488D01*
X-5423645Y335287D01*
X-5413858Y334945D01*
X-5404090Y334411D01*
X-5394557Y333823D01*
X-5385679Y333078D01*
X-5376832Y331968D01*
X-5368125Y330395D01*
X-5361885Y328549D01*
X-5352132Y325644D01*
X-5342356Y323014D01*
X-5333295Y321011D01*
X-5324516Y320000D01*
X-5315372Y322050D01*
X-5307892Y328197D01*
X-5302534Y337342D01*
X-5298975Y346318D01*
X-5295774Y355660D01*
X-5292930Y365369D01*
X-5290444Y375444D01*
X-5288300Y385595D01*
X-5286487Y395533D01*
X-5285003Y405257D01*
X-5283849Y414767D01*
X-5282893Y424575D01*
X-5282104Y434827D01*
X-5281871Y441389D01*
X-5282953Y451327D01*
X-5286567Y460542D01*
X-5289564Y464837D01*
X-5296633Y471348D01*
X-5305536Y474325D01*
X-5306710Y474362D01*
X-5315868Y472662D01*
X-5322317Y468989D01*
X-5330286Y463982D01*
X-5338460Y460093D01*
X-5340562Y459219D01*
X-5349257Y456000D01*
X-5357839Y453323D01*
X-5366576Y450911D01*
X-5371337Y449693D01*
X-5380506Y447885D01*
X-5389337Y446689D01*
X-5399064Y445819D01*
X-5407854Y445343D01*
X-5417267Y445094D01*
X-5423214Y445053D01*
X-5432711Y445053D01*
X-5442187Y445053D01*
X-5451643Y445053D01*
X-5461078Y445053D01*
X-5470492Y445053D01*
X-5479886Y445053D01*
X-5489259Y445053D01*
X-5498612Y445053D01*
X-5507944Y445053D01*
X-5517255Y445053D01*
X-5526546Y445053D01*
X-5535816Y445053D01*
X-5545066Y445053D01*
X-5554295Y445053D01*
X-5563503Y445053D01*
X-5572691Y445053D01*
X-5581878Y445053D01*
X-5591083Y445053D01*
X-5600308Y445053D01*
X-5609551Y445053D01*
X-5618814Y445053D01*
X-5628095Y445053D01*
X-5637395Y445053D01*
X-5646715Y445053D01*
X-5656053Y445053D01*
X-5665409Y445053D01*
X-5674785Y445053D01*
X-5684180Y445053D01*
X-5693593Y445053D01*
X-5703026Y445053D01*
X-5712477Y445053D01*
X-5721947Y445053D01*
X-5723926Y441389D01*
X-5718430Y447007D01*
X-5470255Y704927D01*
X-5463266Y712190D01*
X-5456585Y719567D01*
X-5450214Y727058D01*
X-5444152Y734664D01*
X-5438399Y742384D01*
X-5432955Y750219D01*
X-5427820Y758168D01*
X-5422994Y766232D01*
X-5417269Y776366D01*
X-5411909Y786463D01*
X-5406914Y796525D01*
X-5402283Y806551D01*
X-5398018Y816542D01*
X-5394117Y826496D01*
X-5392659Y830468D01*
X-5389180Y840337D01*
X-5386022Y850098D01*
X-5383186Y859752D01*
X-5380672Y869299D01*
X-5378081Y880613D01*
X-5375953Y891773D01*
X-5374160Y902664D01*
X-5372738Y912988D01*
X-5371687Y922745D01*
X-5370930Y933412D01*
X-5370677Y943308D01*
X-5370824Y954052D01*
X-5371265Y964391D01*
X-5371999Y974328D01*
X-5373435Y986948D01*
X-5375392Y998851D01*
X-5377872Y1010037D01*
X-5380874Y1020505D01*
X-5384398Y1030255D01*
X-5387384Y1037097D01*
X-5391921Y1045978D01*
X-5397289Y1054790D01*
X-5403489Y1063533D01*
X-5410520Y1072207D01*
X-5418381Y1080813D01*
X-5427075Y1089350D01*
X-5434140Y1095708D01*
X-5441673Y1102027D01*
X-5446954Y1106218D01*
X-5454857Y1112268D01*
X-5462492Y1117901D01*
X-5471299Y1124109D01*
X-5479720Y1129716D01*
X-5487755Y1134722D01*
X-5492897Y1137726D01*
X-5501629Y1142574D01*
X-5510129Y1146862D01*
X-5518398Y1150588D01*
X-5527565Y1154160D01*
X-5530925Y1155311D01*
X-5539732Y1157967D01*
X-5548566Y1160074D01*
X-5557427Y1161631D01*
X-5566316Y1162638D01*
X-5575287Y1163279D01*
X-5584616Y1163737D01*
X-5594302Y1164012D01*
X-5604345Y1164104D01*
X-5613575Y1163847D01*
X-5622710Y1163217D01*
X-5632973Y1162209D01*
X-5642387Y1161081D01*
X-5652585Y1159691D01*
X-5659079Y1158730D01*
X-5667865Y1157326D01*
X-5676637Y1155800D01*
X-5685396Y1154151D01*
X-5694140Y1152380D01*
X-5702871Y1150487D01*
X-5711589Y1148472D01*
X-5720292Y1146335D01*
X-5728982Y1144076D01*
X-5739600Y1141133D01*
X-5749886Y1137951D01*
X-5759839Y1134530D01*
X-5769459Y1130871D01*
X-5778747Y1126974D01*
X-5787702Y1122838D01*
X-5791190Y1121117D01*
X-5799169Y1116617D01*
X-5806959Y1110824D01*
X-5813586Y1103523D01*
X-5817914Y1094463D01*
X-5818887Y1087167D01*
X-5818393Y1077092D01*
X-5817373Y1066891D01*
X-5816909Y1062987D01*
X-5815415Y1052817D01*
X-5813406Y1042456D01*
X-5811157Y1032967D01*
X-5810315Y1029770D01*
X-5807422Y1020385D01*
X-5803515Y1010501D01*
X-5798879Y1001189D01*
X-5797345Y998507D01*
X-5791588Y991037D01*
X-5784015Y986015D01*
X-5775144Y984341D01*
X-5765576Y984556D01*
X-5755860Y985349D01*
X-5746662Y986971D01*
X-5738024Y990071D01*
X-5737335Y990447D01*
X-5729780Y995973D01*
X-5724039Y1003751D01*
X-5723047Y1006079D01*
X-5718665Y1016563D01*
X-5713490Y1026033D01*
X-5707520Y1034490D01*
X-5700756Y1041933D01*
X-5693197Y1048362D01*
X-5684844Y1053778D01*
X-5681281Y1055660D01*
X-5671597Y1059882D01*
X-5663062Y1062744D01*
X-5653826Y1065148D01*
X-5643890Y1067095D01*
X-5633253Y1068583D01*
X-5621915Y1069613D01*
X-5612952Y1070086D01*
X-5603594Y1070300D01*
X-5600388Y1070315D01*
X-5588980Y1069988D01*
X-5578167Y1069009D01*
X-5567950Y1067378D01*
X-5558327Y1065094D01*
X-5549299Y1062157D01*
X-5540867Y1058568D01*
X-5530549Y1052767D01*
X-5521289Y1045806D01*
X-5513087Y1037685D01*
X-5509383Y1033190D01*
X-5502685Y1023740D01*
X-5496881Y1013955D01*
X-5491969Y1003835D01*
X-5487951Y993378D01*
X-5484825Y982586D01*
X-5482593Y971457D01*
X-5481253Y959993D01*
X-5480807Y948193D01*
X-5481092Y936647D01*
X-5481768Y926736D01*
X-5482840Y916564D01*
X-5484309Y906128D01*
X-5486176Y895431D01*
X-5488439Y884471D01*
X-5488940Y882248D01*
X-5491815Y870854D01*
X-5494695Y861378D01*
X-5498090Y851581D01*
X-5502001Y841464D01*
X-5506426Y831027D01*
X-5511367Y820269D01*
X-5516823Y809190D01*
X-5521253Y800670D01*
X-5525972Y792008D01*
X-5531063Y783148D01*
X-5536524Y774090D01*
X-5542356Y764835D01*
X-5548559Y755383D01*
X-5555133Y745733D01*
X-5562078Y735885D01*
X-5569393Y725841D01*
X-5577080Y715598D01*
X-5585138Y705158D01*
X-5590716Y698088D01*
X-5599450Y687331D01*
X-5605543Y680011D01*
X-5611852Y672573D01*
X-5618378Y665017D01*
X-5625120Y657342D01*
X-5632079Y649549D01*
X-5639254Y641638D01*
X-5646645Y633609D01*
X-5654253Y625461D01*
X-5662077Y617195D01*
X-5670118Y608811D01*
X-5678375Y600308D01*
X-5686848Y591687D01*
X-5695538Y582947D01*
X-5704444Y574090D01*
X-5708978Y569617D01*
X-5715763Y562874D01*
X-5724377Y554278D01*
X-5732497Y546132D01*
X-5740122Y538436D01*
X-5747252Y531191D01*
X-5753888Y524396D01*
X-5761487Y516536D01*
X-5767010Y510754D01*
X-5774501Y502812D01*
X-5781312Y495470D01*
X-5788399Y487664D01*
X-5794560Y480677D01*
X-5799104Y475339D01*
X-5805316Y467420D01*
X-5810674Y459177D01*
X-5813392Y453357D01*
X-5815880Y443551D01*
X-5816469Y435283D01*
G37*
G36*
X-4859704Y1148342D02*
G01*
X-4848178Y1147655D01*
X-4836875Y1146381D01*
X-4825797Y1144518D01*
X-4814943Y1142068D01*
X-4804314Y1139029D01*
X-4793908Y1135401D01*
X-4783726Y1131186D01*
X-4773769Y1126383D01*
X-4764035Y1120991D01*
X-4754526Y1115011D01*
X-4748318Y1110769D01*
X-4739218Y1104070D01*
X-4730373Y1096968D01*
X-4721784Y1089461D01*
X-4713449Y1081552D01*
X-4705369Y1073238D01*
X-4697545Y1064521D01*
X-4689975Y1055401D01*
X-4682661Y1045877D01*
X-4675601Y1035949D01*
X-4668797Y1025618D01*
X-4664412Y1018551D01*
X-4658082Y1007668D01*
X-4652049Y996446D01*
X-4646314Y984885D01*
X-4640877Y972985D01*
X-4635737Y960745D01*
X-4630895Y948166D01*
X-4626350Y935248D01*
X-4622103Y921991D01*
X-4618154Y908395D01*
X-4614502Y894460D01*
X-4612239Y885047D01*
X-4610122Y875554D01*
X-4608152Y865981D01*
X-4606327Y856327D01*
X-4604648Y846594D01*
X-4603116Y836780D01*
X-4601729Y826886D01*
X-4600488Y816913D01*
X-4599393Y806859D01*
X-4598444Y796724D01*
X-4597642Y786510D01*
X-4596985Y776216D01*
X-4596474Y765841D01*
X-4596109Y755386D01*
X-4595890Y744851D01*
X-4595817Y734236D01*
X-4595920Y726821D01*
X-4596339Y716962D01*
X-4597079Y706447D01*
X-4598142Y695276D01*
X-4599526Y683449D01*
X-4600866Y673515D01*
X-4602412Y663162D01*
X-4604125Y652602D01*
X-4606080Y641928D01*
X-4608274Y631139D01*
X-4610710Y620236D01*
X-4613385Y609218D01*
X-4616301Y598086D01*
X-4619458Y586840D01*
X-4622855Y575479D01*
X-4623743Y572639D01*
X-4627476Y561270D01*
X-4631498Y549886D01*
X-4635809Y538487D01*
X-4640408Y527072D01*
X-4645295Y515642D01*
X-4650472Y504197D01*
X-4655936Y492737D01*
X-4660224Y484132D01*
X-4663151Y478430D01*
X-4667700Y470021D01*
X-4672437Y461783D01*
X-4679049Y451067D01*
X-4685998Y440656D01*
X-4693282Y430551D01*
X-4700904Y420751D01*
X-4708862Y411256D01*
X-4717157Y402066D01*
X-4723558Y395446D01*
X-4732386Y386966D01*
X-4741552Y378883D01*
X-4748647Y373081D01*
X-4755931Y367503D01*
X-4763405Y362148D01*
X-4771068Y357016D01*
X-4778920Y352107D01*
X-4786961Y347422D01*
X-4795192Y342959D01*
X-4800766Y340179D01*
X-4809316Y336345D01*
X-4818095Y332915D01*
X-4827101Y329888D01*
X-4836335Y327265D01*
X-4845798Y325045D01*
X-4855488Y323229D01*
X-4865406Y321817D01*
X-4875552Y320808D01*
X-4885927Y320202D01*
X-4896529Y320000D01*
X-4902660Y320136D01*
X-4911771Y320847D01*
X-4920777Y322168D01*
X-4929680Y324099D01*
X-4938477Y326639D01*
X-4947171Y329789D01*
X-4955760Y333548D01*
X-4964244Y337918D01*
X-4972625Y342896D01*
X-4980901Y348485D01*
X-4989072Y354683D01*
X-4994416Y359118D01*
X-5002273Y366027D01*
X-5009941Y373245D01*
X-5017420Y380773D01*
X-5024710Y388610D01*
X-5031810Y396756D01*
X-5038720Y405211D01*
X-5045442Y413975D01*
X-5051974Y423048D01*
X-5058317Y432430D01*
X-5064470Y442122D01*
X-5068453Y448724D01*
X-5074219Y458771D01*
X-5079734Y468989D01*
X-5084997Y479378D01*
X-5090009Y489940D01*
X-5094771Y500673D01*
X-5099280Y511578D01*
X-5103539Y522655D01*
X-5107547Y533904D01*
X-5111303Y545324D01*
X-5114809Y556916D01*
X-5116991Y564671D01*
X-5120001Y576188D01*
X-5122695Y587569D01*
X-5125071Y598811D01*
X-5127130Y609917D01*
X-5128873Y620885D01*
X-5130299Y631715D01*
X-5131408Y642409D01*
X-5132200Y652965D01*
X-5132675Y663383D01*
X-5132834Y673664D01*
X-5132721Y691382D01*
X-5132384Y708694D01*
X-5131821Y725599D01*
X-5131304Y736435D01*
X-5027541Y736435D01*
X-5027508Y733820D01*
X-5027168Y723654D01*
X-5026736Y713823D01*
X-5026222Y703218D01*
X-5025827Y696562D01*
X-5024990Y686121D01*
X-5023859Y675130D01*
X-5022434Y663589D01*
X-5021023Y653552D01*
X-5019407Y643134D01*
X-5018333Y636732D01*
X-5016344Y625899D01*
X-5014108Y614864D01*
X-5011625Y603627D01*
X-5008896Y592186D01*
X-5005919Y580543D01*
X-5003361Y571082D01*
X-5001315Y564035D01*
X-4998376Y554800D01*
X-4994365Y543513D01*
X-4989978Y532513D01*
X-4985216Y521799D01*
X-4980078Y511370D01*
X-4974564Y501229D01*
X-4972225Y497306D01*
X-4966107Y487898D01*
X-4959603Y479064D01*
X-4952712Y470801D01*
X-4945435Y463112D01*
X-4937771Y455994D01*
X-4929721Y449449D01*
X-4922890Y444755D01*
X-4913838Y439768D01*
X-4904218Y435758D01*
X-4894029Y432727D01*
X-4883271Y430673D01*
X-4874255Y429734D01*
X-4864875Y429421D01*
X-4853413Y429868D01*
X-4842440Y431207D01*
X-4831954Y433440D01*
X-4821955Y436565D01*
X-4812445Y440584D01*
X-4803422Y445496D01*
X-4794887Y451300D01*
X-4786839Y457998D01*
X-4779173Y465466D01*
X-4771892Y473461D01*
X-4764995Y481983D01*
X-4758483Y491032D01*
X-4752355Y500607D01*
X-4746613Y510708D01*
X-4741254Y521337D01*
X-4736281Y532492D01*
X-4731672Y544162D01*
X-4727406Y556214D01*
X-4724432Y565503D01*
X-4721651Y575007D01*
X-4719063Y584726D01*
X-4716669Y594659D01*
X-4714468Y604807D01*
X-4712460Y615170D01*
X-4710645Y625747D01*
X-4709024Y636539D01*
X-4708039Y643802D01*
X-4706680Y654681D01*
X-4705465Y665543D01*
X-4704393Y676388D01*
X-4703464Y687216D01*
X-4702677Y698026D01*
X-4702034Y708820D01*
X-4701534Y719596D01*
X-4701176Y730355D01*
X-4700962Y741097D01*
X-4700890Y751822D01*
X-4700973Y758431D01*
X-4701481Y770125D01*
X-4702219Y780089D01*
X-4703253Y790595D01*
X-4704583Y801644D01*
X-4706207Y813234D01*
X-4708127Y825366D01*
X-4710342Y838040D01*
X-4711540Y844529D01*
X-4713501Y854214D01*
X-4715659Y863838D01*
X-4718014Y873402D01*
X-4720567Y882906D01*
X-4723316Y892350D01*
X-4726262Y901734D01*
X-4729405Y911057D01*
X-4732746Y920321D01*
X-4736283Y929524D01*
X-4740018Y938668D01*
X-4742623Y944714D01*
X-4746718Y953557D01*
X-4751036Y962130D01*
X-4757143Y973140D01*
X-4763648Y983669D01*
X-4770552Y993718D01*
X-4777854Y1003285D01*
X-4785555Y1012372D01*
X-4793654Y1020977D01*
X-4802165Y1028877D01*
X-4811102Y1035724D01*
X-4820465Y1041517D01*
X-4830253Y1046257D01*
X-4840468Y1049943D01*
X-4851109Y1052576D01*
X-4862175Y1054156D01*
X-4873668Y1054683D01*
X-4877797Y1054589D01*
X-4887947Y1053538D01*
X-4897851Y1051317D01*
X-4907508Y1047928D01*
X-4916918Y1043370D01*
X-4926081Y1037643D01*
X-4934997Y1030747D01*
X-4941921Y1024473D01*
X-4948626Y1017619D01*
X-4955110Y1010185D01*
X-4961375Y1002171D01*
X-4967420Y993576D01*
X-4973245Y984402D01*
X-4978851Y974648D01*
X-4984236Y964313D01*
X-4988067Y956245D01*
X-4992910Y945032D01*
X-4997450Y933301D01*
X-5000658Y924162D01*
X-5003695Y914731D01*
X-5006562Y905008D01*
X-5009259Y894993D01*
X-5011786Y884686D01*
X-5014143Y874087D01*
X-5016330Y863197D01*
X-5017687Y855832D01*
X-5019560Y844646D01*
X-5021235Y833292D01*
X-5022713Y821771D01*
X-5023993Y810082D01*
X-5025077Y798226D01*
X-5025964Y786203D01*
X-5026654Y774012D01*
X-5027146Y761654D01*
X-5027442Y749128D01*
X-5027541Y736435D01*
X-5131304Y736435D01*
X-5131034Y742098D01*
X-5130022Y758190D01*
X-5128784Y773876D01*
X-5127322Y789156D01*
X-5125635Y804029D01*
X-5123722Y818495D01*
X-5121585Y832556D01*
X-5119223Y846209D01*
X-5116636Y859457D01*
X-5113824Y872298D01*
X-5110787Y884732D01*
X-5107525Y896760D01*
X-5104037Y908382D01*
X-5100364Y919654D01*
X-5096598Y930634D01*
X-5092739Y941323D01*
X-5088788Y951719D01*
X-5084743Y961824D01*
X-5080606Y971637D01*
X-5076376Y981157D01*
X-5072054Y990386D01*
X-5067639Y999323D01*
X-5063131Y1007968D01*
X-5056195Y1020388D01*
X-5049050Y1032151D01*
X-5041697Y1043257D01*
X-5034135Y1053706D01*
X-5029003Y1060351D01*
X-5021224Y1069822D01*
X-5013349Y1078695D01*
X-5005377Y1086972D01*
X-4997308Y1094652D01*
X-4989143Y1101735D01*
X-4980881Y1108222D01*
X-4972522Y1114112D01*
X-4964067Y1119404D01*
X-4955515Y1124101D01*
X-4946867Y1128200D01*
X-4938288Y1131823D01*
X-4927217Y1136099D01*
X-4916564Y1139742D01*
X-4906331Y1142751D01*
X-4896516Y1145127D01*
X-4887121Y1146869D01*
X-4878144Y1147977D01*
X-4867513Y1148472D01*
X-4859704Y1148342D01*
G37*
G36*
X-4416665Y435283D02*
G01*
X-4416665Y358835D01*
X-4415054Y348799D01*
X-4410223Y339514D01*
X-4403875Y332475D01*
X-4403036Y331724D01*
X-4395559Y326057D01*
X-4387271Y321649D01*
X-4379296Y320000D01*
X-4370492Y321288D01*
X-4362150Y325862D01*
X-4354939Y331539D01*
X-4349400Y335632D01*
X-4340482Y335632D01*
X-4331815Y335632D01*
X-4322981Y335632D01*
X-4313628Y335632D01*
X-4303709Y335632D01*
X-4298183Y335632D01*
X-4289015Y335632D01*
X-4278657Y335632D01*
X-4269116Y335632D01*
X-4258748Y335632D01*
X-4249859Y335632D01*
X-4240442Y335632D01*
X-4235534Y335632D01*
X-4225110Y335632D01*
X-4213841Y335632D01*
X-4204835Y335632D01*
X-4195353Y335632D01*
X-4185396Y335632D01*
X-4174964Y335632D01*
X-4164057Y335632D01*
X-4152674Y335632D01*
X-4140816Y335632D01*
X-4128483Y335632D01*
X-4117052Y335632D01*
X-4106171Y335632D01*
X-4095840Y335632D01*
X-4086058Y335632D01*
X-4076825Y335632D01*
X-4066058Y335632D01*
X-4056149Y335632D01*
X-4052425Y335632D01*
X-4043310Y335602D01*
X-4033150Y335488D01*
X-4023840Y335287D01*
X-4014053Y334945D01*
X-4004285Y334411D01*
X-3994753Y333823D01*
X-3985874Y333078D01*
X-3977028Y331968D01*
X-3968320Y330395D01*
X-3962080Y328549D01*
X-3952327Y325644D01*
X-3942551Y323014D01*
X-3933490Y321011D01*
X-3924711Y320000D01*
X-3915568Y322050D01*
X-3908087Y328197D01*
X-3902729Y337342D01*
X-3899171Y346318D01*
X-3895970Y355660D01*
X-3893126Y365369D01*
X-3890639Y375444D01*
X-3888496Y385595D01*
X-3886682Y395533D01*
X-3885199Y405257D01*
X-3884044Y414767D01*
X-3883088Y424575D01*
X-3882300Y434827D01*
X-3882066Y441389D01*
X-3883148Y451327D01*
X-3886762Y460542D01*
X-3889760Y464837D01*
X-3896828Y471348D01*
X-3905731Y474325D01*
X-3906906Y474362D01*
X-3916063Y472662D01*
X-3922513Y468989D01*
X-3930481Y463982D01*
X-3938655Y460093D01*
X-3940758Y459219D01*
X-3949452Y456000D01*
X-3958034Y453323D01*
X-3966772Y450911D01*
X-3971532Y449693D01*
X-3980702Y447885D01*
X-3989532Y446689D01*
X-3999259Y445819D01*
X-4008050Y445343D01*
X-4017463Y445094D01*
X-4023409Y445053D01*
X-4032906Y445053D01*
X-4042383Y445053D01*
X-4051838Y445053D01*
X-4061273Y445053D01*
X-4070688Y445053D01*
X-4080081Y445053D01*
X-4089455Y445053D01*
X-4098807Y445053D01*
X-4108139Y445053D01*
X-4117451Y445053D01*
X-4126741Y445053D01*
X-4136011Y445053D01*
X-4145261Y445053D01*
X-4154490Y445053D01*
X-4163698Y445053D01*
X-4172886Y445053D01*
X-4182073Y445053D01*
X-4191279Y445053D01*
X-4200503Y445053D01*
X-4209747Y445053D01*
X-4219009Y445053D01*
X-4228291Y445053D01*
X-4237591Y445053D01*
X-4246910Y445053D01*
X-4256248Y445053D01*
X-4265605Y445053D01*
X-4274981Y445053D01*
X-4284375Y445053D01*
X-4293789Y445053D01*
X-4303221Y445053D01*
X-4312673Y445053D01*
X-4322143Y445053D01*
X-4324121Y441389D01*
X-4318626Y447007D01*
X-4070451Y704927D01*
X-4063461Y712190D01*
X-4056781Y719567D01*
X-4050409Y727058D01*
X-4044347Y734664D01*
X-4038594Y742384D01*
X-4033150Y750219D01*
X-4028015Y758168D01*
X-4023190Y766232D01*
X-4017464Y776366D01*
X-4012104Y786463D01*
X-4007109Y796525D01*
X-4002479Y806551D01*
X-3998213Y816542D01*
X-3994313Y826496D01*
X-3992855Y830468D01*
X-3989375Y840337D01*
X-3986217Y850098D01*
X-3983381Y859752D01*
X-3980868Y869299D01*
X-3978276Y880613D01*
X-3976148Y891773D01*
X-3974356Y902664D01*
X-3972934Y912988D01*
X-3971883Y922745D01*
X-3971125Y933412D01*
X-3970873Y943308D01*
X-3971020Y954052D01*
X-3971460Y964391D01*
X-3972194Y974328D01*
X-3973630Y986948D01*
X-3975588Y998851D01*
X-3978068Y1010037D01*
X-3981069Y1020505D01*
X-3984593Y1030255D01*
X-3987579Y1037097D01*
X-3992116Y1045978D01*
X-3997485Y1054790D01*
X-4003684Y1063533D01*
X-4010715Y1072207D01*
X-4018577Y1080813D01*
X-4027270Y1089350D01*
X-4034335Y1095708D01*
X-4041868Y1102027D01*
X-4047150Y1106218D01*
X-4055053Y1112268D01*
X-4062687Y1117901D01*
X-4071495Y1124109D01*
X-4079916Y1129716D01*
X-4087950Y1134722D01*
X-4093092Y1137726D01*
X-4101824Y1142574D01*
X-4110324Y1146862D01*
X-4118594Y1150588D01*
X-4127761Y1154160D01*
X-4131121Y1155311D01*
X-4139927Y1157967D01*
X-4148761Y1160074D01*
X-4157622Y1161631D01*
X-4166511Y1162638D01*
X-4175483Y1163279D01*
X-4184811Y1163737D01*
X-4194497Y1164012D01*
X-4204540Y1164104D01*
X-4213771Y1163847D01*
X-4222905Y1163217D01*
X-4233168Y1162209D01*
X-4242582Y1161081D01*
X-4252780Y1159691D01*
X-4259275Y1158730D01*
X-4268061Y1157326D01*
X-4276833Y1155800D01*
X-4285591Y1154151D01*
X-4294336Y1152380D01*
X-4303067Y1150487D01*
X-4311784Y1148472D01*
X-4320487Y1146335D01*
X-4329177Y1144076D01*
X-4339796Y1141133D01*
X-4350081Y1137951D01*
X-4360034Y1134530D01*
X-4369655Y1130871D01*
X-4378942Y1126974D01*
X-4387897Y1122838D01*
X-4391386Y1121117D01*
X-4399365Y1116617D01*
X-4407155Y1110824D01*
X-4413781Y1103523D01*
X-4418109Y1094463D01*
X-4419083Y1087167D01*
X-4418588Y1077092D01*
X-4417568Y1066891D01*
X-4417104Y1062987D01*
X-4415610Y1052817D01*
X-4413601Y1042456D01*
X-4411352Y1032967D01*
X-4410510Y1029770D01*
X-4407618Y1020385D01*
X-4403711Y1010501D01*
X-4399074Y1001189D01*
X-4397541Y998507D01*
X-4391783Y991037D01*
X-4384210Y986015D01*
X-4375339Y984341D01*
X-4365772Y984556D01*
X-4356055Y985349D01*
X-4346857Y986971D01*
X-4338219Y990071D01*
X-4337530Y990447D01*
X-4329976Y995973D01*
X-4324235Y1003751D01*
X-4323242Y1006079D01*
X-4318861Y1016563D01*
X-4313685Y1026033D01*
X-4307715Y1034490D01*
X-4300951Y1041933D01*
X-4293393Y1048362D01*
X-4285040Y1053778D01*
X-4281476Y1055660D01*
X-4271793Y1059882D01*
X-4263258Y1062744D01*
X-4254022Y1065148D01*
X-4244085Y1067095D01*
X-4233448Y1068583D01*
X-4222110Y1069613D01*
X-4213147Y1070086D01*
X-4203790Y1070300D01*
X-4200583Y1070315D01*
X-4189175Y1069988D01*
X-4178363Y1069009D01*
X-4168145Y1067378D01*
X-4158522Y1065094D01*
X-4149495Y1062157D01*
X-4141062Y1058568D01*
X-4130744Y1052767D01*
X-4121485Y1045806D01*
X-4113283Y1037685D01*
X-4109578Y1033190D01*
X-4102881Y1023740D01*
X-4097076Y1013955D01*
X-4092165Y1003835D01*
X-4088146Y993378D01*
X-4085020Y982586D01*
X-4082788Y971457D01*
X-4081448Y959993D01*
X-4081002Y948193D01*
X-4081288Y936647D01*
X-4081963Y926736D01*
X-4083035Y916564D01*
X-4084505Y906128D01*
X-4086371Y895431D01*
X-4088635Y884471D01*
X-4089135Y882248D01*
X-4092011Y870854D01*
X-4094891Y861378D01*
X-4098286Y851581D01*
X-4102196Y841464D01*
X-4106622Y831027D01*
X-4111562Y820269D01*
X-4117018Y809190D01*
X-4121449Y800670D01*
X-4126168Y792008D01*
X-4131258Y783148D01*
X-4136719Y774090D01*
X-4142551Y764835D01*
X-4148754Y755383D01*
X-4155328Y745733D01*
X-4162273Y735885D01*
X-4169589Y725841D01*
X-4177276Y715598D01*
X-4185333Y705158D01*
X-4190911Y698088D01*
X-4199645Y687331D01*
X-4205738Y680011D01*
X-4212048Y672573D01*
X-4218574Y665017D01*
X-4225316Y657342D01*
X-4232274Y649549D01*
X-4239449Y641638D01*
X-4246841Y633609D01*
X-4254449Y625461D01*
X-4262273Y617195D01*
X-4270313Y608811D01*
X-4278570Y600308D01*
X-4287044Y591687D01*
X-4295733Y582947D01*
X-4304639Y574090D01*
X-4309174Y569617D01*
X-4315959Y562874D01*
X-4324573Y554278D01*
X-4332692Y546132D01*
X-4340317Y538436D01*
X-4347448Y531191D01*
X-4354084Y524396D01*
X-4361683Y516536D01*
X-4367206Y510754D01*
X-4374697Y502812D01*
X-4381508Y495470D01*
X-4388594Y487664D01*
X-4394755Y480677D01*
X-4399299Y475339D01*
X-4405512Y467420D01*
X-4410870Y459177D01*
X-4413587Y453357D01*
X-4416076Y443551D01*
X-4416665Y435283D01*
G37*
G36*
X-3345682Y1179446D02*
G01*
X-3336494Y1175839D01*
X-3330247Y1168111D01*
X-3327192Y1157968D01*
X-3326365Y1146763D01*
X-3326599Y1136533D01*
X-3326991Y1125665D01*
X-3327387Y1115827D01*
X-3327879Y1104260D01*
X-3328343Y1093762D01*
X-3328681Y1085319D01*
X-3329155Y1073441D01*
X-3329656Y1060853D01*
X-3330050Y1050946D01*
X-3330460Y1040640D01*
X-3330885Y1029934D01*
X-3331325Y1018830D01*
X-3331781Y1007326D01*
X-3332253Y995422D01*
X-3332740Y983120D01*
X-3332890Y978951D01*
X-3333337Y966237D01*
X-3333776Y953213D01*
X-3334208Y939881D01*
X-3334632Y926240D01*
X-3335048Y912289D01*
X-3335456Y898030D01*
X-3335856Y883461D01*
X-3336119Y873577D01*
X-3336379Y863555D01*
X-3336634Y853396D01*
X-3336887Y843100D01*
X-3337136Y832666D01*
X-3337375Y822177D01*
X-3337600Y811654D01*
X-3337808Y801096D01*
X-3338001Y790504D01*
X-3338179Y779877D01*
X-3338341Y769217D01*
X-3338488Y758521D01*
X-3338620Y747792D01*
X-3338736Y737028D01*
X-3338836Y726230D01*
X-3338921Y715397D01*
X-3338991Y704530D01*
X-3339045Y693629D01*
X-3339083Y682693D01*
X-3339107Y671724D01*
X-3339114Y660719D01*
X-3339095Y652623D01*
X-3338977Y640600D01*
X-3338751Y630413D01*
X-3338256Y619236D01*
X-3336916Y608451D01*
X-3336630Y607594D01*
X-3329662Y601368D01*
X-3320753Y601368D01*
X-3311829Y601368D01*
X-3302892Y601368D01*
X-3293942Y601368D01*
X-3284977Y601368D01*
X-3275999Y601368D01*
X-3267007Y601368D01*
X-3258001Y601368D01*
X-3248978Y601368D01*
X-3239935Y601368D01*
X-3230871Y601368D01*
X-3221786Y601368D01*
X-3212681Y601368D01*
X-3203555Y601368D01*
X-3194408Y601368D01*
X-3185241Y601368D01*
X-3176471Y602032D01*
X-3167390Y604023D01*
X-3158863Y606986D01*
X-3155446Y608302D01*
X-3146388Y611199D01*
X-3137101Y612603D01*
X-3128671Y610725D01*
X-3122153Y604055D01*
X-3119340Y597895D01*
X-3117537Y587935D01*
X-3118825Y578871D01*
X-3120834Y569128D01*
X-3121482Y566274D01*
X-3124058Y556542D01*
X-3127278Y546477D01*
X-3130726Y537132D01*
X-3132878Y531996D01*
X-3137212Y523021D01*
X-3142136Y514393D01*
X-3147652Y506114D01*
X-3154517Y498643D01*
X-3163011Y493621D01*
X-3172492Y491947D01*
X-3174053Y492033D01*
X-3182603Y494390D01*
X-3185621Y495482D01*
X-3194180Y497806D01*
X-3203266Y499763D01*
X-3208122Y500732D01*
X-3217231Y502182D01*
X-3226553Y503351D01*
X-3235549Y504278D01*
X-3245472Y505137D01*
X-3248981Y505432D01*
X-3258408Y506088D01*
X-3268769Y506625D01*
X-3277730Y506968D01*
X-3287289Y507236D01*
X-3297445Y507426D01*
X-3308199Y507541D01*
X-3319550Y507579D01*
X-3341312Y507579D01*
X-3341243Y504221D01*
X-3341027Y494329D01*
X-3340722Y481567D01*
X-3340395Y469294D01*
X-3340048Y457509D01*
X-3339681Y446213D01*
X-3339293Y435405D01*
X-3338884Y425086D01*
X-3338455Y415255D01*
X-3338090Y408246D01*
X-3337507Y397166D01*
X-3336956Y386837D01*
X-3336338Y375434D01*
X-3335766Y365113D01*
X-3335158Y354439D01*
X-3335075Y353031D01*
X-3334433Y342628D01*
X-3333669Y331770D01*
X-3332740Y321222D01*
X-3331989Y314631D01*
X-3331421Y304613D01*
X-3332149Y296294D01*
X-3335972Y286505D01*
X-3343071Y279945D01*
X-3350494Y276338D01*
X-3359304Y273914D01*
X-3368790Y273106D01*
X-3369894Y273119D01*
X-3378922Y273678D01*
X-3388134Y274571D01*
X-3388986Y274666D01*
X-3398417Y276117D01*
X-3407081Y278087D01*
X-3415831Y280677D01*
X-3417583Y281274D01*
X-3426135Y284742D01*
X-3434344Y289021D01*
X-3442209Y294111D01*
X-3448053Y299480D01*
X-3452871Y308381D01*
X-3454299Y318291D01*
X-3454107Y322244D01*
X-3451222Y331724D01*
X-3449215Y335736D01*
X-3446825Y345158D01*
X-3446315Y351698D01*
X-3445492Y361991D01*
X-3444600Y372864D01*
X-3443748Y383015D01*
X-3442772Y393548D01*
X-3441824Y404142D01*
X-3440904Y414797D01*
X-3440011Y425513D01*
X-3439177Y434800D01*
X-3438301Y445127D01*
X-3437508Y455148D01*
X-3436714Y466058D01*
X-3436633Y467257D01*
X-3436018Y477473D01*
X-3435580Y487601D01*
X-3435395Y498054D01*
X-3438692Y505137D01*
X-3442855Y506527D01*
X-3451722Y507386D01*
X-3461333Y507579D01*
X-3471184Y507541D01*
X-3481282Y507426D01*
X-3491627Y507236D01*
X-3502220Y506968D01*
X-3513059Y506625D01*
X-3524147Y506205D01*
X-3535481Y505709D01*
X-3547063Y505137D01*
X-3558699Y504572D01*
X-3570199Y503976D01*
X-3581560Y503351D01*
X-3592785Y502694D01*
X-3603872Y502007D01*
X-3614822Y501290D01*
X-3625634Y500542D01*
X-3636309Y499763D01*
X-3641544Y499369D01*
X-3651773Y498598D01*
X-3661678Y497850D01*
X-3671261Y497125D01*
X-3680521Y496423D01*
X-3689458Y495744D01*
X-3700175Y494927D01*
X-3710388Y494146D01*
X-3714257Y493879D01*
X-3723163Y493289D01*
X-3732406Y492722D01*
X-3742277Y492207D01*
X-3751274Y491947D01*
X-3758748Y493596D01*
X-3766661Y498542D01*
X-3769192Y500662D01*
X-3776165Y507234D01*
X-3782488Y514174D01*
X-3784765Y517104D01*
X-3790131Y525001D01*
X-3795018Y533957D01*
X-3798291Y542007D01*
X-3800074Y552031D01*
X-3799796Y558191D01*
X-3798095Y568151D01*
X-3797650Y569701D01*
X-3794168Y579272D01*
X-3789962Y588668D01*
X-3786985Y594505D01*
X-3782323Y602834D01*
X-3777391Y611016D01*
X-3772650Y618465D01*
X-3671920Y618465D01*
X-3670511Y615503D01*
X-3662721Y610587D01*
X-3654114Y607230D01*
X-3649017Y605856D01*
X-3639156Y604139D01*
X-3628908Y603023D01*
X-3619380Y602336D01*
X-3608671Y601832D01*
X-3599864Y601574D01*
X-3590392Y601420D01*
X-3580255Y601368D01*
X-3570741Y601368D01*
X-3561213Y601368D01*
X-3551672Y601368D01*
X-3542117Y601368D01*
X-3532548Y601368D01*
X-3522965Y601368D01*
X-3513369Y601368D01*
X-3503758Y601368D01*
X-3494224Y601368D01*
X-3484964Y601368D01*
X-3475979Y601368D01*
X-3465134Y601368D01*
X-3454718Y601368D01*
X-3444732Y601368D01*
X-3435175Y601368D01*
X-3434763Y612351D01*
X-3434351Y623865D01*
X-3434007Y633868D01*
X-3433664Y644240D01*
X-3433320Y654981D01*
X-3432977Y666093D01*
X-3432817Y670640D01*
X-3432463Y681991D01*
X-3432173Y693318D01*
X-3431948Y704621D01*
X-3431787Y715901D01*
X-3431690Y727157D01*
X-3431658Y738388D01*
X-3431660Y745685D01*
X-3431674Y756630D01*
X-3431699Y767576D01*
X-3431736Y778521D01*
X-3431784Y789466D01*
X-3431844Y800411D01*
X-3431915Y811356D01*
X-3431999Y822301D01*
X-3432093Y833246D01*
X-3432199Y844191D01*
X-3432317Y855137D01*
X-3432396Y865986D01*
X-3432467Y876552D01*
X-3432530Y886834D01*
X-3432585Y896833D01*
X-3432647Y909725D01*
X-3432695Y922113D01*
X-3432729Y933996D01*
X-3432750Y945377D01*
X-3432757Y956253D01*
X-3438017Y950917D01*
X-3445492Y943013D01*
X-3453497Y934209D01*
X-3459847Y927015D01*
X-3466495Y919314D01*
X-3473441Y911106D01*
X-3480684Y902392D01*
X-3488224Y893172D01*
X-3496062Y883444D01*
X-3504198Y873211D01*
X-3509670Y866256D01*
X-3517792Y855850D01*
X-3525809Y845474D01*
X-3533722Y835128D01*
X-3541530Y824811D01*
X-3549234Y814525D01*
X-3556834Y804269D01*
X-3564330Y794043D01*
X-3571721Y783847D01*
X-3579008Y773681D01*
X-3586190Y763546D01*
X-3588540Y760185D01*
X-3595426Y750253D01*
X-3602069Y740550D01*
X-3608468Y731074D01*
X-3614624Y721825D01*
X-3620537Y712804D01*
X-3626206Y704011D01*
X-3631632Y695445D01*
X-3636814Y687106D01*
X-3641753Y678996D01*
X-3647959Y668535D01*
X-3649433Y666002D01*
X-3654862Y656493D01*
X-3659542Y647985D01*
X-3664338Y638756D01*
X-3669088Y628459D01*
X-3671920Y618465D01*
X-3772650Y618465D01*
X-3771717Y619931D01*
X-3769351Y623510D01*
X-3763380Y632629D01*
X-3757759Y641302D01*
X-3751674Y650764D01*
X-3746250Y659253D01*
X-3740503Y668291D01*
X-3429020Y1134306D01*
X-3422480Y1142565D01*
X-3415226Y1149515D01*
X-3407869Y1155268D01*
X-3399460Y1160832D01*
X-3391651Y1165325D01*
X-3386839Y1167900D01*
X-3377771Y1172291D01*
X-3368130Y1176133D01*
X-3359499Y1178595D01*
X-3349885Y1179735D01*
X-3345682Y1179446D01*
G37*
%TO.C,Q3*%
D12*
X-2350000Y-4750000D02*
X-2300000Y-4750000D01*
X-2300000Y-5885000D01*
X-1920000Y-5885000D01*
X-1920000Y-6515000D01*
X-2300000Y-6515000D01*
X-2300000Y-6930000D01*
X-4950000Y-6930000D01*
X-4950000Y-6515000D01*
X-5330000Y-6515000D01*
X-5330000Y-5885000D01*
X-4950000Y-5885000D01*
X-4950000Y-4750000D01*
X-4900000Y-4750000D01*
X-4900000Y-4450000D01*
X-2350000Y-4450000D01*
X-2350000Y-4750000D01*
G36*
X-2350000Y-4750000D02*
G01*
X-2300000Y-4750000D01*
X-2300000Y-5885000D01*
X-1920000Y-5885000D01*
X-1920000Y-6515000D01*
X-2300000Y-6515000D01*
X-2300000Y-6930000D01*
X-4950000Y-6930000D01*
X-4950000Y-6515000D01*
X-5330000Y-6515000D01*
X-5330000Y-5885000D01*
X-4950000Y-5885000D01*
X-4950000Y-4750000D01*
X-4900000Y-4750000D01*
X-4900000Y-4450000D01*
X-2350000Y-4450000D01*
X-2350000Y-4750000D01*
G37*
%TO.C,Q2*%
X-2500000Y11250000D02*
X-2450000Y11250000D01*
X-2450000Y10115000D01*
X-2070000Y10115000D01*
X-2070000Y9485000D01*
X-2450000Y9485000D01*
X-2450000Y9070000D01*
X-5100000Y9070000D01*
X-5100000Y9485000D01*
X-5480000Y9485000D01*
X-5480000Y10115000D01*
X-5100000Y10115000D01*
X-5100000Y11250000D01*
X-5050000Y11250000D01*
X-5050000Y11550000D01*
X-2500000Y11550000D01*
X-2500000Y11250000D01*
G36*
X-2500000Y11250000D02*
G01*
X-2450000Y11250000D01*
X-2450000Y10115000D01*
X-2070000Y10115000D01*
X-2070000Y9485000D01*
X-2450000Y9485000D01*
X-2450000Y9070000D01*
X-5100000Y9070000D01*
X-5100000Y9485000D01*
X-5480000Y9485000D01*
X-5480000Y10115000D01*
X-5100000Y10115000D01*
X-5100000Y11250000D01*
X-5050000Y11250000D01*
X-5050000Y11550000D01*
X-2500000Y11550000D01*
X-2500000Y11250000D01*
G37*
%TD*%
D13*
%TO.C,J1*%
X-2890000Y-18900000D03*
X2890000Y-18900000D03*
D14*
X-3250000Y-17455000D03*
X-2450000Y-17455000D03*
D15*
X-1250000Y-17455000D03*
X-250000Y-17455000D03*
X250000Y-17455000D03*
D16*
X1250000Y-17455000D03*
D14*
X2450000Y-17455000D03*
X3250000Y-17455000D03*
X3250000Y-17455000D03*
X2450000Y-17455000D03*
D16*
X1750000Y-17455000D03*
X750000Y-17455000D03*
D15*
X-750000Y-17455000D03*
D16*
X-1750000Y-17455000D03*
D14*
X-2450000Y-17455000D03*
X-3250000Y-17455000D03*
D17*
X-4320000Y-18370000D03*
D18*
X-4320000Y-22550000D03*
D17*
X4320000Y-18370000D03*
D18*
X4320000Y-22550000D03*
%TD*%
D19*
%TO.C,C13*%
X-3400000Y-3400000D03*
X-4950000Y-3400000D03*
%TD*%
%TO.C,C8*%
X11775000Y-1400000D03*
X10225000Y-1400000D03*
%TD*%
D20*
%TO.C,Q3*%
X-4600000Y-7600000D03*
X-3950000Y-7600000D03*
X-3300000Y-7600000D03*
X-2650000Y-7600000D03*
%TD*%
D21*
%TO.C,TP3*%
X5500000Y-9400000D03*
%TD*%
D22*
%TO.C,R13*%
X1800000Y11000000D03*
X-200000Y11000000D03*
%TD*%
D23*
%TO.C,U1*%
X-200000Y-13100000D03*
X300000Y-13100000D03*
X800000Y-13100000D03*
X1300000Y-13100000D03*
X1800000Y-13100000D03*
D24*
X1800000Y-10200000D03*
D23*
X1300000Y-10200000D03*
X800000Y-10200000D03*
X300000Y-10200000D03*
X-200000Y-10200000D03*
D25*
X800000Y-11650000D03*
%TD*%
D26*
%TO.C,C4*%
X-11450000Y-8125000D03*
X-11450000Y-9675000D03*
%TD*%
D27*
%TO.C,R5*%
X2200000Y-7962500D03*
X2200000Y-6137500D03*
%TD*%
D28*
%TO.C,Q5*%
X4550000Y675000D03*
X2650000Y675000D03*
X3600000Y-1200000D03*
%TD*%
D29*
%TO.C,C5*%
X-6600000Y10800000D03*
X-6600000Y12350000D03*
%TD*%
D30*
%TO.C,H1*%
X13000000Y13000000D03*
%TD*%
D31*
%TO.C,R11*%
X6200000Y9802500D03*
X6200000Y10997500D03*
%TD*%
D27*
%TO.C,R7*%
X3600000Y10087500D03*
X3600000Y11912500D03*
%TD*%
D19*
%TO.C,C1*%
X-3425000Y-1800000D03*
X-4975000Y-1800000D03*
%TD*%
D32*
%TO.C,D21*%
X-3950000Y-14050000D03*
X-3950000Y-12150000D03*
X-5825000Y-13100000D03*
%TD*%
D33*
%TO.C,SW2*%
X-7450000Y8170000D03*
X-9660000Y8170000D03*
D34*
X-8560000Y6020000D03*
X-8560000Y3020000D03*
D33*
X-7450000Y870000D03*
X-9660000Y870000D03*
D35*
X-6800000Y6770000D03*
D36*
X-6800000Y3770000D03*
X-6800000Y2270000D03*
%TD*%
D37*
%TO.C,C15*%
X-4667500Y-15600000D03*
X-3532500Y-15600000D03*
%TD*%
D32*
%TO.C,Q1*%
X-7800000Y-11350000D03*
X-7800000Y-9450000D03*
X-9675000Y-10400000D03*
%TD*%
D29*
%TO.C,C7*%
X-2400000Y12625000D03*
X-2400000Y14175000D03*
%TD*%
D38*
%TO.C,D27*%
X8075000Y400000D03*
X6325000Y400000D03*
%TD*%
D39*
%TO.C,D26*%
X1075000Y13700000D03*
X3125000Y13700000D03*
%TD*%
D20*
%TO.C,Q2*%
X-4750000Y8400000D03*
X-4100000Y8400000D03*
D40*
X-3450000Y8400000D03*
D20*
X-2800000Y8400000D03*
%TD*%
D27*
%TO.C,R6*%
X600000Y-7862500D03*
X600000Y-6037500D03*
%TD*%
D41*
%TO.C,R9*%
X7600000Y5200000D03*
X9600000Y5200000D03*
%TD*%
D42*
%TO.C,C3*%
X12325000Y-3700000D03*
X13875000Y-3700000D03*
%TD*%
D43*
%TO.C,U2*%
X5355000Y4645000D03*
X5355000Y5915000D03*
X5355000Y7185000D03*
X5355000Y8455000D03*
X405000Y8455000D03*
X405000Y7185000D03*
X405000Y5915000D03*
X405000Y4645000D03*
%TD*%
D44*
%TO.C,Q4*%
X8125000Y9150000D03*
X8125000Y7250000D03*
X10000000Y8200000D03*
%TD*%
D45*
%TO.C,R2*%
X-2000000Y-15200000D03*
X-2000000Y-13200000D03*
%TD*%
D46*
%TO.C,R4*%
X-1000000Y-6687500D03*
X-1000000Y-8512500D03*
%TD*%
D29*
%TO.C,C12*%
X-3950000Y12625000D03*
X-3950000Y14175000D03*
%TD*%
D47*
%TO.C,R1*%
X-1625000Y-2800000D03*
X200000Y-2800000D03*
%TD*%
D48*
%TO.C,TP1*%
X3800000Y-11750000D03*
X3800000Y-14290000D03*
%TD*%
D49*
%TO.C,U3*%
X-750000Y862500D03*
X1150000Y862500D03*
X200000Y2737500D03*
%TD*%
D47*
%TO.C,R10*%
X-1512500Y-1200000D03*
X312500Y-1200000D03*
%TD*%
D30*
%TO.C,H3*%
X13000000Y-13000000D03*
%TD*%
D21*
%TO.C,TP2*%
X5500000Y-6400000D03*
%TD*%
D45*
%TO.C,R8*%
X-2000000Y4700000D03*
X-2000000Y6700000D03*
%TD*%
D19*
%TO.C,C14*%
X-3400000Y-10600000D03*
X-4950000Y-10600000D03*
%TD*%
D41*
%TO.C,R14*%
X6400000Y-1600000D03*
X8400000Y-1600000D03*
%TD*%
D19*
%TO.C,C6*%
X12775000Y5300000D03*
X11225000Y5300000D03*
%TD*%
D30*
%TO.C,H2*%
X-13000000Y13000000D03*
%TD*%
D33*
%TO.C,SW1*%
X-7450000Y-650000D03*
X-9660000Y-650000D03*
D34*
X-8560000Y-2800000D03*
X-8560000Y-5800000D03*
D50*
X-7450000Y-7950000D03*
D51*
X-9660000Y-7950000D03*
D35*
X-6800000Y-2050000D03*
X-6800000Y-5050000D03*
D36*
X-6800000Y-6550000D03*
%TD*%
D52*
%TO.C,R12*%
X3002500Y2200000D03*
X4197500Y2200000D03*
%TD*%
D19*
%TO.C,C10*%
X11775000Y-6000000D03*
X10225000Y-6000000D03*
%TD*%
%TO.C,C2*%
X-8300000Y9900000D03*
X-9850000Y9900000D03*
%TD*%
D29*
%TO.C,C9*%
X-1800000Y-11575000D03*
X-1800000Y-10025000D03*
%TD*%
D19*
%TO.C,C11*%
X-12825000Y0D03*
X-14375000Y0D03*
%TD*%
D30*
%TO.C,H4*%
X-13000000Y-13000000D03*
%TD*%
D53*
%TO.C,R3*%
X-2602500Y-8800000D03*
X-3797500Y-8800000D03*
%TD*%
M02*
