%TF.GenerationSoftware,KiCad,Pcbnew,7.0.11*%
%TF.CreationDate,2024-09-02T12:26:07-05:00*%
%TF.ProjectId,uv_light,75765f6c-6967-4687-942e-6b696361645f,rev?*%
%TF.SameCoordinates,PX5f5e100PY5f5e100*%
%TF.FileFunction,Paste,Top*%
%TF.FilePolarity,Positive*%
%FSLAX46Y46*%
G04 Gerber Fmt 4.6, Leading zero omitted, Abs format (unit mm)*
G04 Created by KiCad (PCBNEW 7.0.11) date 2024-09-02 12:26:07*
%MOMM*%
%LPD*%
G01*
G04 APERTURE LIST*
G04 Aperture macros list*
%AMRoundRect*
0 Rectangle with rounded corners*
0 $1 Rounding radius*
0 $2 $3 $4 $5 $6 $7 $8 $9 X,Y pos of 4 corners*
0 Add a 4 corners polygon primitive as box body*
4,1,4,$2,$3,$4,$5,$6,$7,$8,$9,$2,$3,0*
0 Add four circle primitives for the rounded corners*
1,1,$1+$1,$2,$3*
1,1,$1+$1,$4,$5*
1,1,$1+$1,$6,$7*
1,1,$1+$1,$8,$9*
0 Add four rect primitives between the rounded corners*
20,1,$1+$1,$2,$3,$4,$5,0*
20,1,$1+$1,$4,$5,$6,$7,0*
20,1,$1+$1,$6,$7,$8,$9,0*
20,1,$1+$1,$8,$9,$2,$3,0*%
G04 Aperture macros list end*
%ADD10C,0.010000*%
%ADD11RoundRect,0.150000X-0.150000X-0.575000X0.150000X-0.575000X0.150000X0.575000X-0.150000X0.575000X0*%
%ADD12R,0.300000X1.450000*%
%ADD13RoundRect,0.075000X-0.075000X-0.650000X0.075000X-0.650000X0.075000X0.650000X-0.075000X0.650000X0*%
%ADD14RoundRect,0.225000X0.225000X0.250000X-0.225000X0.250000X-0.225000X-0.250000X0.225000X-0.250000X0*%
%ADD15R,0.350000X0.500000*%
%ADD16RoundRect,0.250000X0.350000X0.450000X-0.350000X0.450000X-0.350000X-0.450000X0.350000X-0.450000X0*%
%ADD17RoundRect,0.167500X0.312500X-0.167500X0.312500X0.167500X-0.312500X0.167500X-0.312500X-0.167500X0*%
%ADD18RoundRect,0.062500X0.062500X-0.362500X0.062500X0.362500X-0.062500X0.362500X-0.062500X-0.362500X0*%
%ADD19RoundRect,0.090000X0.035000X-0.335000X0.035000X0.335000X-0.035000X0.335000X-0.035000X-0.335000X0*%
%ADD20RoundRect,0.225000X-0.250000X0.225000X-0.250000X-0.225000X0.250000X-0.225000X0.250000X0.225000X0*%
%ADD21RoundRect,0.237500X0.237500X-0.250000X0.237500X0.250000X-0.237500X0.250000X-0.237500X-0.250000X0*%
%ADD22RoundRect,0.150000X-0.150000X0.587500X-0.150000X-0.587500X0.150000X-0.587500X0.150000X0.587500X0*%
%ADD23RoundRect,0.225000X0.250000X-0.225000X0.250000X0.225000X-0.250000X0.225000X-0.250000X-0.225000X0*%
%ADD24RoundRect,0.160000X0.160000X-0.197500X0.160000X0.197500X-0.160000X0.197500X-0.160000X-0.197500X0*%
%ADD25RoundRect,0.150000X0.587500X0.150000X-0.587500X0.150000X-0.587500X-0.150000X0.587500X-0.150000X0*%
%ADD26R,0.800000X1.000000*%
%ADD27RoundRect,0.175000X-0.575000X0.175000X-0.575000X-0.175000X0.575000X-0.175000X0.575000X0.175000X0*%
%ADD28R,1.500000X0.700000*%
%ADD29RoundRect,0.155000X-0.212500X-0.155000X0.212500X-0.155000X0.212500X0.155000X-0.212500X0.155000X0*%
%ADD30RoundRect,0.237500X0.287500X0.237500X-0.287500X0.237500X-0.287500X-0.237500X0.287500X-0.237500X0*%
%ADD31RoundRect,0.250000X-0.325000X-0.450000X0.325000X-0.450000X0.325000X0.450000X-0.325000X0.450000X0*%
%ADD32RoundRect,0.087500X0.087500X-0.162500X0.087500X0.162500X-0.087500X0.162500X-0.087500X-0.162500X0*%
%ADD33RoundRect,0.250000X-0.350000X-0.450000X0.350000X-0.450000X0.350000X0.450000X-0.350000X0.450000X0*%
%ADD34RoundRect,0.225000X-0.225000X-0.250000X0.225000X-0.250000X0.225000X0.250000X-0.225000X0.250000X0*%
%ADD35RoundRect,0.150000X0.825000X0.150000X-0.825000X0.150000X-0.825000X-0.150000X0.825000X-0.150000X0*%
%ADD36RoundRect,0.150000X-0.587500X-0.150000X0.587500X-0.150000X0.587500X0.150000X-0.587500X0.150000X0*%
%ADD37RoundRect,0.250000X0.450000X-0.350000X0.450000X0.350000X-0.450000X0.350000X-0.450000X-0.350000X0*%
%ADD38RoundRect,0.237500X-0.237500X0.250000X-0.237500X-0.250000X0.237500X-0.250000X0.237500X0.250000X0*%
%ADD39RoundRect,0.237500X-0.250000X-0.237500X0.250000X-0.237500X0.250000X0.237500X-0.250000X0.237500X0*%
%ADD40RoundRect,0.150000X0.150000X-0.587500X0.150000X0.587500X-0.150000X0.587500X-0.150000X-0.587500X0*%
%ADD41RoundRect,0.400000X0.000000X0.100000X0.000000X-0.100000X0.000000X-0.100000X0.000000X0.100000X0*%
%ADD42RoundRect,0.200000X-0.200000X0.300000X-0.200000X-0.300000X0.200000X-0.300000X0.200000X0.300000X0*%
%ADD43RoundRect,0.160000X-0.197500X-0.160000X0.197500X-0.160000X0.197500X0.160000X-0.197500X0.160000X0*%
%ADD44RoundRect,0.160000X0.197500X0.160000X-0.197500X0.160000X-0.197500X-0.160000X0.197500X-0.160000X0*%
G04 APERTURE END LIST*
%TO.C,Q3*%
D10*
X-2850000Y-6465000D02*
X-4400000Y-6465000D01*
X-4400000Y-5215000D01*
X-2850000Y-5215000D01*
X-2850000Y-6465000D01*
G36*
X-2850000Y-6465000D02*
G01*
X-4400000Y-6465000D01*
X-4400000Y-5215000D01*
X-2850000Y-5215000D01*
X-2850000Y-6465000D01*
G37*
X-4850000Y-6415000D02*
X-5230000Y-6415000D01*
X-5230000Y-5985000D01*
X-4850000Y-5985000D01*
X-4850000Y-6415000D01*
G36*
X-4850000Y-6415000D02*
G01*
X-5230000Y-6415000D01*
X-5230000Y-5985000D01*
X-4850000Y-5985000D01*
X-4850000Y-6415000D01*
G37*
X-2020000Y-6415000D02*
X-2400000Y-6415000D01*
X-2400000Y-5985000D01*
X-2020000Y-5985000D01*
X-2020000Y-6415000D01*
G36*
X-2020000Y-6415000D02*
G01*
X-2400000Y-6415000D01*
X-2400000Y-5985000D01*
X-2020000Y-5985000D01*
X-2020000Y-6415000D01*
G37*
X-4400000Y-4845000D02*
X-4800000Y-4845000D01*
X-4800000Y-4550000D01*
X-4400000Y-4550000D01*
X-4400000Y-4845000D01*
G36*
X-4400000Y-4845000D02*
G01*
X-4800000Y-4845000D01*
X-4800000Y-4550000D01*
X-4400000Y-4550000D01*
X-4400000Y-4845000D01*
G37*
X-3750000Y-4845000D02*
X-4150000Y-4845000D01*
X-4150000Y-4550000D01*
X-3750000Y-4550000D01*
X-3750000Y-4845000D01*
G36*
X-3750000Y-4845000D02*
G01*
X-4150000Y-4845000D01*
X-4150000Y-4550000D01*
X-3750000Y-4550000D01*
X-3750000Y-4845000D01*
G37*
X-3100000Y-4845000D02*
X-3500000Y-4845000D01*
X-3500000Y-4550000D01*
X-3100000Y-4550000D01*
X-3100000Y-4845000D01*
G36*
X-3100000Y-4845000D02*
G01*
X-3500000Y-4845000D01*
X-3500000Y-4550000D01*
X-3100000Y-4550000D01*
X-3100000Y-4845000D01*
G37*
X-2450000Y-4845000D02*
X-2850000Y-4845000D01*
X-2850000Y-4550000D01*
X-2450000Y-4550000D01*
X-2450000Y-4845000D01*
G36*
X-2450000Y-4845000D02*
G01*
X-2850000Y-4845000D01*
X-2850000Y-4550000D01*
X-2450000Y-4550000D01*
X-2450000Y-4845000D01*
G37*
%TO.C,Q2*%
X-3000000Y9535000D02*
X-4550000Y9535000D01*
X-4550000Y10785000D01*
X-3000000Y10785000D01*
X-3000000Y9535000D01*
G36*
X-3000000Y9535000D02*
G01*
X-4550000Y9535000D01*
X-4550000Y10785000D01*
X-3000000Y10785000D01*
X-3000000Y9535000D01*
G37*
X-5000000Y9585000D02*
X-5380000Y9585000D01*
X-5380000Y10015000D01*
X-5000000Y10015000D01*
X-5000000Y9585000D01*
G36*
X-5000000Y9585000D02*
G01*
X-5380000Y9585000D01*
X-5380000Y10015000D01*
X-5000000Y10015000D01*
X-5000000Y9585000D01*
G37*
X-2170000Y9585000D02*
X-2550000Y9585000D01*
X-2550000Y10015000D01*
X-2170000Y10015000D01*
X-2170000Y9585000D01*
G36*
X-2170000Y9585000D02*
G01*
X-2550000Y9585000D01*
X-2550000Y10015000D01*
X-2170000Y10015000D01*
X-2170000Y9585000D01*
G37*
X-4550000Y11155000D02*
X-4950000Y11155000D01*
X-4950000Y11450000D01*
X-4550000Y11450000D01*
X-4550000Y11155000D01*
G36*
X-4550000Y11155000D02*
G01*
X-4950000Y11155000D01*
X-4950000Y11450000D01*
X-4550000Y11450000D01*
X-4550000Y11155000D01*
G37*
X-3900000Y11155000D02*
X-4300000Y11155000D01*
X-4300000Y11450000D01*
X-3900000Y11450000D01*
X-3900000Y11155000D01*
G36*
X-3900000Y11155000D02*
G01*
X-4300000Y11155000D01*
X-4300000Y11450000D01*
X-3900000Y11450000D01*
X-3900000Y11155000D01*
G37*
X-3250000Y11155000D02*
X-3650000Y11155000D01*
X-3650000Y11450000D01*
X-3250000Y11450000D01*
X-3250000Y11155000D01*
G36*
X-3250000Y11155000D02*
G01*
X-3650000Y11155000D01*
X-3650000Y11450000D01*
X-3250000Y11450000D01*
X-3250000Y11155000D01*
G37*
X-2600000Y11155000D02*
X-3000000Y11155000D01*
X-3000000Y11450000D01*
X-2600000Y11450000D01*
X-2600000Y11155000D01*
G36*
X-2600000Y11155000D02*
G01*
X-3000000Y11155000D01*
X-3000000Y11450000D01*
X-2600000Y11450000D01*
X-2600000Y11155000D01*
G37*
%TD*%
D11*
%TO.C,J1*%
X-3250000Y-17455000D03*
X-2450000Y-17455000D03*
D12*
X-1250000Y-17455000D03*
X-250000Y-17455000D03*
X250000Y-17455000D03*
D13*
X1250000Y-17455000D03*
D11*
X2450000Y-17455000D03*
X3250000Y-17455000D03*
X3250000Y-17455000D03*
X2450000Y-17455000D03*
D13*
X1750000Y-17455000D03*
X750000Y-17455000D03*
D12*
X-750000Y-17455000D03*
D13*
X-1750000Y-17455000D03*
D11*
X-2450000Y-17455000D03*
X-3250000Y-17455000D03*
%TD*%
D14*
%TO.C,C13*%
X-3400000Y-3400000D03*
X-4950000Y-3400000D03*
%TD*%
%TO.C,C8*%
X11775000Y-1400000D03*
X10225000Y-1400000D03*
%TD*%
D15*
%TO.C,Q3*%
X-4600000Y-7600000D03*
X-3950000Y-7600000D03*
X-3300000Y-7600000D03*
X-2650000Y-7600000D03*
%TD*%
D16*
%TO.C,R13*%
X1800000Y11000000D03*
X-200000Y11000000D03*
%TD*%
D17*
%TO.C,U1*%
X205000Y-12060000D03*
X1395000Y-12060000D03*
X205000Y-11240000D03*
X1395000Y-11240000D03*
D18*
X-200000Y-13100000D03*
X300000Y-13100000D03*
X800000Y-13100000D03*
X1300000Y-13100000D03*
X1800000Y-13100000D03*
D19*
X1800000Y-10200000D03*
D18*
X1300000Y-10200000D03*
X800000Y-10200000D03*
X300000Y-10200000D03*
X-200000Y-10200000D03*
%TD*%
D20*
%TO.C,C4*%
X-11450000Y-8125000D03*
X-11450000Y-9675000D03*
%TD*%
D21*
%TO.C,R5*%
X2200000Y-7962500D03*
X2200000Y-6137500D03*
%TD*%
D22*
%TO.C,Q5*%
X4550000Y675000D03*
X2650000Y675000D03*
X3600000Y-1200000D03*
%TD*%
D23*
%TO.C,C5*%
X-6600000Y10800000D03*
X-6600000Y12350000D03*
%TD*%
D24*
%TO.C,R11*%
X6200000Y9802500D03*
X6200000Y10997500D03*
%TD*%
D21*
%TO.C,R7*%
X3600000Y10087500D03*
X3600000Y11912500D03*
%TD*%
D14*
%TO.C,C1*%
X-3425000Y-1800000D03*
X-4975000Y-1800000D03*
%TD*%
D25*
%TO.C,D21*%
X-3950000Y-14050000D03*
X-3950000Y-12150000D03*
X-5825000Y-13100000D03*
%TD*%
D26*
%TO.C,SW2*%
X-7450000Y8170000D03*
X-9660000Y8170000D03*
X-7450000Y870000D03*
X-9660000Y870000D03*
D27*
X-6800000Y6770000D03*
D28*
X-6800000Y3770000D03*
X-6800000Y2270000D03*
%TD*%
D29*
%TO.C,C15*%
X-4667500Y-15600000D03*
X-3532500Y-15600000D03*
%TD*%
D25*
%TO.C,Q1*%
X-7800000Y-11350000D03*
X-7800000Y-9450000D03*
X-9675000Y-10400000D03*
%TD*%
D23*
%TO.C,C7*%
X-2400000Y12625000D03*
X-2400000Y14175000D03*
%TD*%
D30*
%TO.C,D27*%
X8075000Y400000D03*
X6325000Y400000D03*
%TD*%
D31*
%TO.C,D26*%
X1075000Y13700000D03*
X3125000Y13700000D03*
%TD*%
D15*
%TO.C,Q2*%
X-4750000Y8400000D03*
X-4100000Y8400000D03*
D32*
X-3450000Y8400000D03*
D15*
X-2800000Y8400000D03*
%TD*%
D21*
%TO.C,R6*%
X600000Y-7862500D03*
X600000Y-6037500D03*
%TD*%
D33*
%TO.C,R9*%
X7600000Y5200000D03*
X9600000Y5200000D03*
%TD*%
D34*
%TO.C,C3*%
X12325000Y-3700000D03*
X13875000Y-3700000D03*
%TD*%
D35*
%TO.C,U2*%
X5355000Y4645000D03*
X5355000Y5915000D03*
X5355000Y7185000D03*
X5355000Y8455000D03*
X405000Y8455000D03*
X405000Y7185000D03*
X405000Y5915000D03*
X405000Y4645000D03*
%TD*%
D36*
%TO.C,Q4*%
X8125000Y9150000D03*
X8125000Y7250000D03*
X10000000Y8200000D03*
%TD*%
D37*
%TO.C,R2*%
X-2000000Y-15200000D03*
X-2000000Y-13200000D03*
%TD*%
D38*
%TO.C,R4*%
X-1000000Y-6687500D03*
X-1000000Y-8512500D03*
%TD*%
D23*
%TO.C,C12*%
X-3950000Y12625000D03*
X-3950000Y14175000D03*
%TD*%
D39*
%TO.C,R1*%
X-1625000Y-2800000D03*
X200000Y-2800000D03*
%TD*%
D40*
%TO.C,U3*%
X-750000Y862500D03*
X1150000Y862500D03*
X200000Y2737500D03*
%TD*%
D39*
%TO.C,R10*%
X-1512500Y-1200000D03*
X312500Y-1200000D03*
%TD*%
D37*
%TO.C,R8*%
X-2000000Y4700000D03*
X-2000000Y6700000D03*
%TD*%
D14*
%TO.C,C14*%
X-3400000Y-10600000D03*
X-4950000Y-10600000D03*
%TD*%
D33*
%TO.C,R14*%
X6400000Y-1600000D03*
X8400000Y-1600000D03*
%TD*%
D14*
%TO.C,C6*%
X12775000Y5300000D03*
X11225000Y5300000D03*
%TD*%
D26*
%TO.C,SW1*%
X-7450000Y-650000D03*
X-9660000Y-650000D03*
D41*
X-7450000Y-7950000D03*
D42*
X-9660000Y-7950000D03*
D27*
X-6800000Y-2050000D03*
X-6800000Y-5050000D03*
D28*
X-6800000Y-6550000D03*
%TD*%
D43*
%TO.C,R12*%
X3002500Y2200000D03*
X4197500Y2200000D03*
%TD*%
D14*
%TO.C,C10*%
X11775000Y-6000000D03*
X10225000Y-6000000D03*
%TD*%
%TO.C,C2*%
X-8300000Y9900000D03*
X-9850000Y9900000D03*
%TD*%
D23*
%TO.C,C9*%
X-1800000Y-11575000D03*
X-1800000Y-10025000D03*
%TD*%
D14*
%TO.C,C11*%
X-12825000Y0D03*
X-14375000Y0D03*
%TD*%
D44*
%TO.C,R3*%
X-2602500Y-8800000D03*
X-3797500Y-8800000D03*
%TD*%
M02*
