%TF.GenerationSoftware,KiCad,Pcbnew,7.0.11*%
%TF.CreationDate,2024-09-02T12:26:07-05:00*%
%TF.ProjectId,uv_light,75765f6c-6967-4687-942e-6b696361645f,rev?*%
%TF.SameCoordinates,PX5f5e100PY5f5e100*%
%TF.FileFunction,Paste,Bot*%
%TF.FilePolarity,Positive*%
%FSLAX46Y46*%
G04 Gerber Fmt 4.6, Leading zero omitted, Abs format (unit mm)*
G04 Created by KiCad (PCBNEW 7.0.11) date 2024-09-02 12:26:07*
%MOMM*%
%LPD*%
G01*
G04 APERTURE LIST*
G04 Aperture macros list*
%AMRoundRect*
0 Rectangle with rounded corners*
0 $1 Rounding radius*
0 $2 $3 $4 $5 $6 $7 $8 $9 X,Y pos of 4 corners*
0 Add a 4 corners polygon primitive as box body*
4,1,4,$2,$3,$4,$5,$6,$7,$8,$9,$2,$3,0*
0 Add four circle primitives for the rounded corners*
1,1,$1+$1,$2,$3*
1,1,$1+$1,$4,$5*
1,1,$1+$1,$6,$7*
1,1,$1+$1,$8,$9*
0 Add four rect primitives between the rounded corners*
20,1,$1+$1,$2,$3,$4,$5,0*
20,1,$1+$1,$4,$5,$6,$7,0*
20,1,$1+$1,$6,$7,$8,$9,0*
20,1,$1+$1,$8,$9,$2,$3,0*%
G04 Aperture macros list end*
%ADD10R,2.800000X0.600000*%
%ADD11RoundRect,0.537500X1.212500X0.537500X-1.212500X0.537500X-1.212500X-0.537500X1.212500X-0.537500X0*%
%ADD12RoundRect,0.537500X-1.212500X-0.537500X1.212500X-0.537500X1.212500X0.537500X-1.212500X0.537500X0*%
%ADD13R,0.600000X2.800000*%
%ADD14RoundRect,0.537500X0.537500X-1.212500X0.537500X1.212500X-0.537500X1.212500X-0.537500X-1.212500X0*%
%ADD15RoundRect,0.537500X-0.537500X1.212500X-0.537500X-1.212500X0.537500X-1.212500X0.537500X1.212500X0*%
%ADD16RoundRect,0.550000X0.700000X0.550000X-0.700000X0.550000X-0.700000X-0.550000X0.700000X-0.550000X0*%
%ADD17RoundRect,0.387500X0.387500X0.712500X-0.387500X0.712500X-0.387500X-0.712500X0.387500X-0.712500X0*%
%ADD18R,1.010000X0.750000*%
%ADD19RoundRect,0.125000X0.125000X1.525000X-0.125000X1.525000X-0.125000X-1.525000X0.125000X-1.525000X0*%
%ADD20R,0.500000X3.300000*%
%ADD21RoundRect,0.540000X-0.535000X1.185000X-0.535000X-1.185000X0.535000X-1.185000X0.535000X1.185000X0*%
%ADD22RoundRect,0.550000X-0.700000X-0.550000X0.700000X-0.550000X0.700000X0.550000X-0.700000X0.550000X0*%
%ADD23RoundRect,0.387500X-0.387500X-0.712500X0.387500X-0.712500X0.387500X0.712500X-0.387500X0.712500X0*%
%ADD24RoundRect,0.175000X1.225000X0.175000X-1.225000X0.175000X-1.225000X-0.175000X1.225000X-0.175000X0*%
%ADD25R,2.500000X2.200000*%
%ADD26R,1.550000X2.200000*%
%ADD27R,0.650000X2.700000*%
%ADD28RoundRect,0.700000X-0.375000X1.050000X-0.375000X-1.050000X0.375000X-1.050000X0.375000X1.050000X0*%
%ADD29RoundRect,0.740000X-0.335000X0.935000X-0.335000X-0.935000X0.335000X-0.935000X0.335000X0.935000X0*%
%ADD30R,0.700000X2.650000*%
G04 APERTURE END LIST*
D10*
%TO.C,D7*%
X15500000Y-8100000D03*
D11*
X15500000Y-9425000D03*
X15500000Y-5575000D03*
D10*
X15500000Y-6900000D03*
%TD*%
%TO.C,D19*%
X0Y-14600000D03*
D11*
X0Y-15925000D03*
X0Y-12075000D03*
D10*
X0Y-13400000D03*
%TD*%
%TO.C,D11*%
X-15500000Y8100000D03*
D12*
X-15500000Y9425000D03*
X-15500000Y5575000D03*
D10*
X-15500000Y6900000D03*
%TD*%
D13*
%TO.C,D22*%
X-14600000Y0D03*
D14*
X-15925000Y0D03*
X-12075000Y0D03*
D13*
X-13400000Y0D03*
%TD*%
%TO.C,D5*%
X-7400000Y-8000000D03*
D15*
X-6075000Y-8000000D03*
X-9925000Y-8000000D03*
D13*
X-8600000Y-8000000D03*
%TD*%
D10*
%TO.C,D16*%
X0Y21600000D03*
D12*
X0Y22925000D03*
X0Y19075000D03*
D10*
X0Y20400000D03*
%TD*%
%TO.C,D14*%
X8000000Y15600000D03*
D12*
X8000000Y16925000D03*
X8000000Y13075000D03*
D10*
X8000000Y14400000D03*
%TD*%
D13*
%TO.C,D18*%
X21600000Y0D03*
D15*
X22925000Y0D03*
X19075000Y0D03*
D13*
X20400000Y0D03*
%TD*%
D10*
%TO.C,D13*%
X15500000Y8100000D03*
D12*
X15500000Y9425000D03*
X15500000Y5575000D03*
D10*
X15500000Y6900000D03*
%TD*%
%TO.C,D25*%
X-8000000Y-15600000D03*
D11*
X-8000000Y-16925000D03*
X-8000000Y-13075000D03*
D10*
X-8000000Y-14400000D03*
%TD*%
D16*
%TO.C,D3*%
X1050000Y5000000D03*
D17*
X-1525000Y5000000D03*
%TD*%
D18*
%TO.C,D4*%
X0Y-1000000D03*
X0Y0D03*
X0Y1000000D03*
D19*
X1400000Y0D03*
D20*
X-1400000Y0D03*
%TD*%
D21*
%TO.C,D10*%
X9925000Y7975000D03*
D13*
X8600000Y8000000D03*
D15*
X6075000Y8000000D03*
D13*
X7400000Y8000000D03*
%TD*%
D10*
%TO.C,D20*%
X0Y-21600000D03*
D11*
X0Y-22925000D03*
X0Y-19075000D03*
D10*
X0Y-20400000D03*
%TD*%
D22*
%TO.C,D1*%
X3000000Y-4000000D03*
D23*
X5575000Y-4000000D03*
%TD*%
D13*
%TO.C,D17*%
X14600000Y0D03*
D15*
X15925000Y0D03*
X12075000Y0D03*
D13*
X13400000Y0D03*
%TD*%
D10*
%TO.C,D8*%
X8000000Y-15600000D03*
D11*
X8000000Y-16925000D03*
X8000000Y-13075000D03*
D24*
X8000000Y-14350000D03*
%TD*%
D25*
%TO.C,D2*%
X-5000000Y-4000000D03*
D26*
X-2425000Y-4000000D03*
%TD*%
D13*
%TO.C,D23*%
X-21600000Y0D03*
D14*
X-22925000Y0D03*
X-19075000Y0D03*
D13*
X-20400000Y0D03*
%TD*%
D10*
%TO.C,D15*%
X0Y14600000D03*
D12*
X0Y15925000D03*
X0Y12075000D03*
D10*
X0Y13400000D03*
%TD*%
D13*
%TO.C,D6*%
X8600000Y-8000000D03*
D15*
X9925000Y-8000000D03*
X6075000Y-8000000D03*
D13*
X7400000Y-8000000D03*
%TD*%
D10*
%TO.C,D24*%
X-15500000Y-8100000D03*
D11*
X-15500000Y-9425000D03*
X-15500000Y-5575000D03*
D10*
X-15500000Y-6900000D03*
%TD*%
%TO.C,D12*%
X-8000000Y15600000D03*
D12*
X-8000000Y16925000D03*
X-8000000Y13075000D03*
D10*
X-8000000Y14400000D03*
%TD*%
D27*
%TO.C,D9*%
X-7375000Y7950000D03*
D28*
X-6075000Y8000000D03*
D29*
X-9925000Y8075000D03*
D30*
X-8650000Y8075000D03*
%TD*%
M02*
